<?xml version="1.0" encoding="UTF-8"?>
<svg xmlns="http://www.w3.org/2000/svg" width="89" height="88" viewBox="0 0 89 88" fill="none">
  <path d="M49.7264 50.2264C49.7264 47.4757 47.496 45.2452 44.7453 45.2452C41.9946 45.2452 39.7642 47.4757 39.7642 50.2264C39.7642 52.9771 42.2547 54.7398 44.7453 55.2075C47.2359 55.6752 49.7264 57.4379 49.7264 60.1886C49.7264 62.9393 47.496 65.1698 44.7453 65.1698C41.9946 65.1698 39.7642 62.9393 39.7642 60.1886" stroke="#FFCD4F" stroke-width="2" stroke-linecap="round" stroke-linejoin="round"></path>
  <path d="M44.7451 45.2452V41.9245" stroke="#FFCD4F" stroke-width="2" stroke-linecap="round" stroke-linejoin="round"></path>
  <path d="M44.7451 68.4906V65.1698" stroke="#FFCD4F" stroke-width="2" stroke-linecap="round" stroke-linejoin="round"></path>
  <path d="M77.4999 71.5H86.6666V1.83331H2.33325V71.5H5.99992" stroke="#D3E9F3" stroke-width="2" stroke-miterlimit="10"></path>
  <path d="M86.6666 16.5H2.33325" stroke="#D3E9F3" stroke-width="2" stroke-miterlimit="10"></path>
  <path d="M72 9.16669H66.5" stroke="#D3E9F3" stroke-width="2" stroke-miterlimit="10"></path>
  <path d="M81.1667 9.16669H75.6667" stroke="#D3E9F3" stroke-width="2" stroke-miterlimit="10"></path>
  <path d="M62.8333 9.16669H57.3333" stroke="#D3E9F3" stroke-width="2" stroke-miterlimit="10"></path>
  <path d="M40.8333 9.16669H7.83325" stroke="#D3E9F3" stroke-width="2" stroke-miterlimit="10"></path>
  <path d="M44.5 86.1666C53.6127 86.1666 61 72.2129 61 55C61 37.7871 53.6127 23.8333 44.5 23.8333C35.3873 23.8333 28 37.7871 28 55C28 72.2129 35.3873 86.1666 44.5 86.1666Z" stroke="#D3E9F3" stroke-width="2" stroke-miterlimit="10"></path>
  <path d="M53.6667 55H75.6667" stroke="#D3E9F3" stroke-width="2" stroke-miterlimit="10"></path>
  <path d="M13.3333 55H35.3333" stroke="#D3E9F3" stroke-width="2" stroke-miterlimit="10"></path>
  <path d="M65.0699 78.375C59.5883 76.3767 52.4016 75.1667 44.4999 75.1667C36.5983 75.1667 29.4299 76.3767 23.9299 78.375" stroke="#D3E9F3" stroke-width="2" stroke-miterlimit="10"></path>
  <path d="M65.0699 31.625C59.5883 33.6233 52.4016 34.8333 44.4999 34.8333C36.5983 34.8333 29.4299 33.6233 23.9299 31.625" stroke="#D3E9F3" stroke-width="2" stroke-miterlimit="10"></path>
  <path d="M72.9166 45.8333C75.4479 45.8333 77.4999 43.7813 77.4999 41.25C77.4999 38.7187 75.4479 36.6667 72.9166 36.6667C70.3853 36.6667 68.3333 38.7187 68.3333 41.25C68.3333 43.7813 70.3853 45.8333 72.9166 45.8333Z" stroke="#FFCD4F" stroke-width="2" stroke-miterlimit="10"></path>
  <path d="M20.6667 68.75C20.6667 70.3083 19.8967 71.6833 18.705 72.5083C17.9717 73.0217 17.055 73.3333 16.0833 73.3333C13.5533 73.3333 11.5 71.28 11.5 68.75C11.5 66.6783 12.875 64.9367 14.7633 64.3683C15.1667 64.24 15.625 64.1667 16.0833 64.1667C18.6133 64.1667 20.6667 66.22 20.6667 68.75Z" stroke="#FFCD4F" stroke-width="2" stroke-miterlimit="10"></path>
  <path d="M74.2184 45.6133C75.1534 48.5833 75.6667 51.7367 75.6667 55C75.6667 72.215 61.7151 86.1667 44.5001 86.1667C33.7751 86.1667 24.3334 80.7583 18.7051 72.5083" stroke="#D3E9F3" stroke-width="2" stroke-miterlimit="10"></path>
  <path d="M14.7633 64.3683C13.8283 61.4166 13.3333 58.2633 13.3333 55C13.3333 37.785 27.2849 23.8333 44.4999 23.8333C55.2249 23.8333 64.6849 29.26 70.2949 37.51" stroke="#D3E9F3" stroke-width="2" stroke-miterlimit="10"></path>
</svg>
