<?xml version="1.0" encoding="UTF-8"?>
<svg xmlns="http://www.w3.org/2000/svg" width="109" height="104" viewBox="0 0 109 104" fill="none">
  <path d="M63.3045 74.6765L38.4349 90.4348L2.26099 65.5652" stroke="white" stroke-width="2" stroke-linecap="round" stroke-linejoin="round"></path>
  <path d="M70.0869 22.6086V27.1304" stroke="white" stroke-width="2" stroke-miterlimit="10"></path>
  <path d="M38.4348 42.9565V47.4783" stroke="white" stroke-width="2" stroke-miterlimit="10"></path>
  <path d="M63.3042 51.8643L26.0903 26.7008L42.8434 16.5947L52.6782 22.7669L81.3912 40.786V76.9599L63.3042 88.626V51.8643Z" stroke="white" stroke-width="2" stroke-linecap="round" stroke-linejoin="round"></path>
  <path d="M73.9304 36.1061L86.8625 27.9217C84.8956 26.6782 84.4886 24.9147 86.8625 23.4226L72.6417 14.4243C70.2678 15.9165 67.4869 15.6678 65.5199 14.4243L52.4973 22.6539" stroke="white" stroke-width="2" stroke-miterlimit="10"></path>
  <path d="M35.7671 33.2573L21.614 42.1878C23.9879 43.6799 23.6036 45.4208 21.6366 46.6643L35.8575 55.6625C37.8244 54.4191 40.5827 54.1704 42.9566 55.6625L56.3636 47.1843" stroke="white" stroke-width="2" stroke-miterlimit="10"></path>
  <path d="M63.3045 52.0677L38.4349 67.826L2.26099 45.2173L29.0071 28.6677" stroke="white" stroke-width="2" stroke-linecap="round" stroke-linejoin="round"></path>
  <path d="M45.353 18.1549L70.0869 2.26099L106.261 24.8697L81.2556 40.6958" stroke="white" stroke-width="2" stroke-linecap="round" stroke-linejoin="round"></path>
  <path d="M63.3045 63.4175L38.4349 79.1306L2.26099 54.261" stroke="white" stroke-width="2" stroke-linecap="round" stroke-linejoin="round"></path>
  <path d="M106.261 36.1738L81.3914 51.9095" stroke="white" stroke-width="2" stroke-linecap="round" stroke-linejoin="round"></path>
  <path d="M63.3045 85.9809L38.4349 101.739L2.26099 76.8696" stroke="white" stroke-width="2" stroke-linecap="round" stroke-linejoin="round"></path>
  <path d="M106.261 58.7827L81.3914 74.541" stroke="white" stroke-width="2" stroke-linecap="round" stroke-linejoin="round"></path>
  <path d="M106.261 47.4783L81.3914 63.2365" stroke="white" stroke-width="2" stroke-linecap="round" stroke-linejoin="round"></path>
</svg>
