<?xml version="1.0" encoding="UTF-8"?>
<svg xmlns="http://www.w3.org/2000/svg" width="83" height="88" viewBox="0 0 83 88" fill="none">
  <g clip-path="url(#clip0_33_178)">
    <path d="M15.407 74.1583L36.5683 86.3739C38.2701 87.3585 40.3729 87.3585 42.0747 86.3739L77.0778 66.166" stroke="#D3E9F3" stroke-width="2" stroke-miterlimit="10"></path>
    <path d="M25.4797 8.763L4.31839 20.9787C2.61657 21.9632 1.56519 23.7809 1.56519 25.75V66.1659" stroke="#D3E9F3" stroke-width="2" stroke-miterlimit="10"></path>
    <path d="M77.0734 50.5511V25.75C77.0734 23.7809 76.022 21.9632 74.3202 20.9787L39.3215 0.770691" stroke="#D3E9F3" stroke-width="2" stroke-miterlimit="10"></path>
    <path d="M77.0734 59.274C79.4822 59.274 81.4348 57.3214 81.4348 54.9126C81.4348 52.5038 79.4822 50.5511 77.0734 50.5511C74.6646 50.5511 72.7119 52.5038 72.7119 54.9126C72.7119 57.3214 74.6646 59.274 77.0734 59.274Z" stroke="#D3E9F3" stroke-width="2" stroke-miterlimit="10"></path>
    <path d="M32.338 9.66862C34.0413 7.96536 34.0413 5.20383 32.338 3.50057C30.6347 1.79732 27.8732 1.79732 26.17 3.50057C24.4667 5.20383 24.4667 7.96536 26.17 9.66862C27.8732 11.3719 30.6347 11.3719 32.338 9.66862Z" stroke="#D3E9F3" stroke-width="2" stroke-miterlimit="10"></path>
    <path d="M13.2863 76.0133C15.5148 75.0989 16.58 72.5511 15.6656 70.3227C14.7512 68.0942 12.2034 67.029 9.97492 67.9434C7.74646 68.8578 6.68122 71.4056 7.59563 73.634C8.51004 75.8625 11.0578 76.9277 13.2863 76.0133Z" stroke="#D3E9F3" stroke-width="2" stroke-miterlimit="10"></path>
    <path d="M23.6042 23.9323L37.2544 16.0514C38.9562 15.0668 41.059 15.0668 42.7608 16.0514L65.9047 29.412" stroke="#FFCD4F" stroke-width="2" stroke-miterlimit="10"></path>
    <path d="M14.106 29.4165V56.1422C14.106 58.1113 15.1573 59.9289 16.8592 60.9135L30.5093 68.7944" stroke="#FFCD4F" stroke-width="2" stroke-miterlimit="10"></path>
    <path d="M65.9002 40.1264V56.1422C65.9002 58.1113 64.8488 59.9289 63.147 60.9135L40.0032 74.2741" stroke="#FFCD4F" stroke-width="2" stroke-miterlimit="10"></path>
    <path d="M65.9002 34.1433C64.2474 34.1433 62.9109 35.4842 62.9109 37.1326C62.9109 38.781 64.2519 40.1219 65.9002 40.1219C67.5486 40.1219 68.8895 38.781 68.8895 37.1326C68.8895 35.4842 67.5486 34.1433 65.9002 34.1433Z" stroke="#FFCD4F" stroke-width="2" stroke-miterlimit="10"></path>
    <path d="M33.0977 73.2717C34.7487 73.2717 36.087 71.9333 36.087 70.2824C36.087 68.6314 34.7487 67.2931 33.0977 67.2931C31.4468 67.2931 30.1084 68.6314 30.1084 70.2824C30.1084 71.9333 31.4468 73.2717 33.0977 73.2717Z" stroke="#FFCD4F" stroke-width="2" stroke-miterlimit="10"></path>
    <path d="M21.0159 28.4186C22.6669 28.4186 24.0052 27.0802 24.0052 25.4293C24.0052 23.7783 22.6669 22.4399 21.0159 22.4399C19.365 22.4399 18.0266 23.7783 18.0266 25.4293C18.0266 27.0802 19.365 28.4186 21.0159 28.4186Z" stroke="#FFCD4F" stroke-width="2" stroke-miterlimit="10"></path>
    <path d="M31.8591 55.3759L37.9402 58.8864C39.6421 59.871 41.7448 59.871 43.4466 58.8864L54.6421 52.4222" stroke="#D3E9F3" stroke-width="2" stroke-miterlimit="10"></path>
    <path d="M35.5792 31.2119L29.4981 34.7224C27.7963 35.707 26.7449 37.5246 26.7449 39.4937V52.4222" stroke="#D3E9F3" stroke-width="2" stroke-miterlimit="10"></path>
    <path d="M54.6467 46.653V39.4937C54.6467 37.5246 53.5953 35.707 51.8935 34.7224L40.698 28.2582" stroke="#D3E9F3" stroke-width="2" stroke-miterlimit="10"></path>
    <path d="M54.6467 49.8739C53.7556 49.8739 53.0339 49.1522 53.0339 48.2612C53.0339 47.3702 53.7556 46.6485 54.6467 46.6485C55.5377 46.6485 56.2594 47.3702 56.2594 48.2612C56.2594 49.1522 55.5377 49.8739 54.6467 49.8739Z" stroke="#D3E9F3" stroke-width="2" stroke-miterlimit="10"></path>
    <path d="M36.9738 32.0182C36.0828 32.0182 35.3611 31.2965 35.3611 30.4055C35.3611 29.5145 36.0828 28.7928 36.9738 28.7928C37.8648 28.7928 38.5865 29.5145 38.5865 30.4055C38.5865 31.2965 37.8648 32.0182 36.9738 32.0182Z" stroke="#D3E9F3" stroke-width="2" stroke-miterlimit="10"></path>
    <path d="M30.465 56.1823C29.574 56.1823 28.8523 55.4605 28.8523 54.5695C28.8523 53.6785 29.574 52.9568 30.465 52.9568C31.356 52.9568 32.0777 53.6785 32.0777 54.5695C32.0777 55.4605 31.356 56.1823 30.465 56.1823Z" stroke="#D3E9F3" stroke-width="2" stroke-miterlimit="10"></path>
  </g>
  <defs>
    <clipPath id="clip0_33_178">
      <rect width="81.6516" height="88" fill="white" transform="translate(0.674194)"></rect>
    </clipPath>
  </defs>
</svg>
