<?xml version="1.0" encoding="UTF-8"?>
<svg xmlns="http://www.w3.org/2000/svg" width="67" height="72" viewBox="0 0 67 72" fill="none">
  <g clip-path="url(#clip0_62_15582)">
    <path d="M55.3333 53.24L38 62.76" stroke="white" stroke-width="2" stroke-linecap="round" stroke-linejoin="round"></path>
    <path d="M28.6666 9.23999L11.3333 18.76" stroke="white" stroke-width="2" stroke-linecap="round" stroke-linejoin="round"></path>
    <path d="M6.66675 45.3334V26.6667" stroke="white" stroke-width="2" stroke-linecap="round" stroke-linejoin="round"></path>
    <path d="M28.6666 62.76L11.3333 53.24" stroke="white" stroke-width="2" stroke-linecap="round" stroke-linejoin="round"></path>
    <path d="M60 45.3334V26.6667" stroke="white" stroke-width="2" stroke-linecap="round" stroke-linejoin="round"></path>
    <path d="M55.3333 18.76L38 9.23999" stroke="white" stroke-width="2" stroke-linecap="round" stroke-linejoin="round"></path>
    <path d="M55.3333 23.9067L33.3333 36.0001L11.3333 23.9067" stroke="white" stroke-width="2" stroke-linecap="round" stroke-linejoin="round"></path>
    <path d="M33.3333 60V36V12" stroke="white" stroke-width="2" stroke-linecap="round" stroke-linejoin="round"></path>
    <path d="M55.3334 48.0933L33.3334 36L11.0134 47.5867" stroke="white" stroke-width="2" stroke-linecap="round" stroke-linejoin="round"></path>
    <path d="M33.3333 11.9999C36.2789 11.9999 38.6667 9.6121 38.6667 6.66658C38.6667 3.72107 36.2789 1.33325 33.3333 1.33325C30.3878 1.33325 28 3.72107 28 6.66658C28 9.6121 30.3878 11.9999 33.3333 11.9999Z" stroke="white" stroke-width="2" stroke-linecap="round" stroke-linejoin="round"></path>
    <path d="M60.0001 26.6667C62.9456 26.6667 65.3334 24.2789 65.3334 21.3333C65.3334 18.3878 62.9456 16 60.0001 16C57.0546 16 54.6667 18.3878 54.6667 21.3333C54.6667 24.2789 57.0546 26.6667 60.0001 26.6667Z" stroke="white" stroke-width="2" stroke-linecap="round" stroke-linejoin="round"></path>
    <path d="M6.66658 26.6667C9.6121 26.6667 11.9999 24.2789 11.9999 21.3333C11.9999 18.3878 9.6121 16 6.66658 16C3.72107 16 1.33325 18.3878 1.33325 21.3333C1.33325 24.2789 3.72107 26.6667 6.66658 26.6667Z" stroke="white" stroke-width="2" stroke-linecap="round" stroke-linejoin="round"></path>
    <path d="M33.3333 70.6667C36.2789 70.6667 38.6667 68.2789 38.6667 65.3333C38.6667 62.3878 36.2789 60 33.3333 60C30.3878 60 28 62.3878 28 65.3333C28 68.2789 30.3878 70.6667 33.3333 70.6667Z" stroke="white" stroke-width="2" stroke-linecap="round" stroke-linejoin="round"></path>
    <path d="M60.0001 55.9999C62.9456 55.9999 65.3334 53.6121 65.3334 50.6666C65.3334 47.7211 62.9456 45.3333 60.0001 45.3333C57.0546 45.3333 54.6667 47.7211 54.6667 50.6666C54.6667 53.6121 57.0546 55.9999 60.0001 55.9999Z" stroke="white" stroke-width="2" stroke-linecap="round" stroke-linejoin="round"></path>
    <path d="M6.66658 55.9999C9.6121 55.9999 11.9999 53.6121 11.9999 50.6666C11.9999 47.7211 9.6121 45.3333 6.66658 45.3333C3.72107 45.3333 1.33325 47.7211 1.33325 50.6666C1.33325 53.6121 3.72107 55.9999 6.66658 55.9999Z" stroke="white" stroke-width="2" stroke-linecap="round" stroke-linejoin="round"></path>
  </g>
  <defs>
    <clipPath id="clip0_62_15582">
      <rect width="66.6667" height="72" fill="white"></rect>
    </clipPath>
  </defs>
</svg>
