<?xml version="1.0" encoding="UTF-8"?>
<svg xmlns="http://www.w3.org/2000/svg" width="105" height="90" viewBox="0 0 105 90" fill="none">
  <path d="M103.972 69.0755V74.0566C103.972 77.7371 101.011 80.6981 97.3302 80.6981H7.66983C3.98933 80.6981 1.02832 77.7371 1.02832 74.0566V7.64151C1.02832 3.96101 3.98933 1 7.66983 1H97.3302C101.011 1 103.972 3.96101 103.972 7.64151V55.7924" stroke="#D3E9F3" stroke-width="2" stroke-linecap="round" stroke-linejoin="round"></path>
  <path d="M1.02832 69.0755H97.3302" stroke="#D3E9F3" stroke-width="2" stroke-linecap="round" stroke-linejoin="round"></path>
  <path d="M44.198 80.6981V88.9999" stroke="#D3E9F3" stroke-width="2" stroke-linecap="round" stroke-linejoin="round"></path>
  <path d="M60.8018 80.6981V88.9999" stroke="#D3E9F3" stroke-width="2" stroke-linecap="round" stroke-linejoin="round"></path>
  <path d="M34.2361 89H70.7644" stroke="#D3E9F3" stroke-width="2" stroke-linecap="round" stroke-linejoin="round"></path>
  <path d="M12.6509 35.8679C12.6509 35.8679 12.6509 47.4905 17.632 47.4905C22.6131 47.4905 19.2924 17.6038 27.5943 17.6038C35.8962 17.6038 30.0848 52.9393 40.8773 52.4717C51.6697 52.004 42.5377 25.9056 52.4999 25.9056" stroke="#D3E9F3" stroke-width="2" stroke-linecap="round" stroke-linejoin="round"></path>
  <path d="M95.6696 34.2076C95.6696 45.2104 86.7478 54.1321 75.7451 54.1321C64.7423 54.1321 55.8206 45.2104 55.8206 34.2076C55.8206 23.2048 64.7423 14.2831 75.7451 14.2831C86.7478 14.2831 95.6696 23.2048 95.6696 34.2076Z" stroke="#FFCD4F" stroke-width="2" stroke-linecap="round" stroke-linejoin="round"></path>
  <path d="M80.7264 29.2264C80.7264 26.4757 78.496 24.2452 75.7453 24.2452C72.9946 24.2452 70.7642 26.4757 70.7642 29.2264C70.7642 31.9771 73.2547 33.7398 75.7453 34.2075C78.2359 34.6752 80.7264 36.4379 80.7264 39.1886C80.7264 41.9393 78.496 44.1698 75.7453 44.1698C72.9946 44.1698 70.7642 41.9393 70.7642 39.1886" stroke="#FFCD4F" stroke-width="2" stroke-linecap="round" stroke-linejoin="round"></path>
  <path d="M75.7451 24.2452V20.9244" stroke="#FFCD4F" stroke-width="2" stroke-linecap="round" stroke-linejoin="round"></path>
  <path d="M75.7451 47.4906V44.1698" stroke="#FFCD4F" stroke-width="2" stroke-linecap="round" stroke-linejoin="round"></path>
  <path d="M103.972 64.0943L89.0283 49.1509" stroke="#FFCD4F" stroke-width="2" stroke-linecap="round" stroke-linejoin="round"></path>
</svg>
