<?xml version="1.0" encoding="UTF-8"?>
<svg xmlns="http://www.w3.org/2000/svg" width="112" height="106" viewBox="0 0 112 106" fill="none">
  <path d="M84.4898 11.6586C75.4923 4.79338 64.4391 1.00884 52.9941 1C24.2787 1 1 24.2816 1 53C1 81.7184 24.2787 105 52.9941 105C64.442 104.991 75.4982 101.207 84.4986 94.3355" stroke="white" stroke-width="2" stroke-linecap="round" stroke-linejoin="round"></path>
  <path d="M76.9736 76.9797L93.6757 93.6818C104.476 82.8965 110.549 68.262 110.563 53.0001C110.552 37.7352 104.476 23.1036 93.6757 12.3184L77.0031 28.9939" stroke="white" stroke-width="2" stroke-linecap="round" stroke-linejoin="round"></path>
  <path d="M49.28 43.7139C49.28 46.7916 46.7855 49.2861 43.7078 49.2861C40.6301 49.2861 38.1355 46.7916 38.1355 43.7139C38.1355 40.6362 40.6301 38.1416 43.7078 38.1416C46.7855 38.1416 49.28 40.6362 49.28 43.7139V43.7139Z" stroke="white" stroke-width="2" stroke-linecap="round" stroke-linejoin="round"></path>
  <path d="M67.8499 62.2861C67.8499 65.3638 65.3553 67.8584 62.2776 67.8584C59.1999 67.8584 56.7053 65.3638 56.7053 62.2861C56.7053 59.2084 59.1999 56.7139 62.2776 56.7139C65.3553 56.7139 67.8499 59.2084 67.8499 62.2861V62.2861Z" stroke="white" stroke-width="2" stroke-linecap="round" stroke-linejoin="round"></path>
  <path d="M41.8523 67.8555L64.1355 38.1416" stroke="white" stroke-width="2" stroke-linecap="round" stroke-linejoin="round"></path>
  <path d="M80.8496 53.0002C80.8496 68.3858 68.3797 80.8557 52.9941 80.8557C37.6085 80.8557 25.1387 68.3829 25.1387 53.0002C25.1387 37.6176 37.6085 25.1448 52.9941 25.1448C68.3797 25.1448 80.8496 37.6176 80.8496 53.0002Z" stroke="white" stroke-width="2" stroke-linecap="round" stroke-linejoin="round"></path>
</svg>
