<?xml version="1.0" encoding="UTF-8"?>
<svg xmlns="http://www.w3.org/2000/svg" width="162" height="34" viewBox="0 0 162 34" fill="none">
  <g clip-path="url(#clip0_13_1210)">
    <path fill-rule="evenodd" clip-rule="evenodd" d="M0.838867 0.649414H20.1745V7.05124H0.838867V0.649414ZM0.838867 32.7132V13.4772H20.1745V19.879H7.27386V32.7132H0.838867Z" fill="black"></path>
    <path d="M36.7277 0H29.1721V32.1111H36.7277V0Z" fill="black"></path>
    <path d="M60.3902 13.6185V20.1036H64.3311V21.4623C64.3311 24.7665 61.6937 27.4533 58.4499 27.4533C55.2061 27.4533 52.5687 24.7665 52.5687 21.4623V12.5068C52.5687 9.20253 55.2061 6.51589 58.4499 6.51589C59.6322 6.51589 60.754 6.85559 61.7543 7.53497C62.0271 7.72025 62.3 7.93641 62.5426 8.18348L62.7547 8.36876L67.1807 3.67483L66.9686 3.48955C66.5442 3.05722 66.0591 2.65576 65.574 2.31608C65.4832 2.25431 65.4225 2.19255 65.3315 2.16166H65.3013C65.2406 2.09992 65.1496 2.06903 65.089 2.00727C63.0883 0.679382 60.8146 0 58.4499 0C51.6896 0 46.1721 5.58947 46.1721 12.5068V21.4931C46.1721 28.3796 51.6592 34 58.4499 34C65.2102 34 70.7277 28.4106 70.7277 21.4931V13.6185H60.3902Z" fill="black"></path>
    <path d="M94.3894 0V21.2974V21.5817C94.3894 24.7732 91.8277 27.3643 88.6723 27.3643C85.5169 27.3643 82.9552 24.7732 82.9552 21.5817V21.2974V0H76.3945V21.2974V21.5817C76.3945 28.4387 81.8929 34 88.6723 34C95.3578 34 100.794 28.5966 100.95 21.8662V21.5817V21.2974V0H94.3894Z" fill="black"></path>
    <path d="M126.163 32.0805H133.061L127.387 19.8099C130.553 17.9786 132.673 14.5294 132.673 10.5918C132.673 4.76172 128.014 0 122.31 0H122.041H116.696H114.038H110.395V32.1111H116.666V21.1531H121.056L126.163 32.0805ZM116.696 6.41002H122.041H122.31C124.55 6.41002 126.402 8.27197 126.402 10.5918C126.402 12.8811 124.58 14.7735 122.31 14.7735H122.041H116.696V6.41002Z" fill="black"></path>
    <path d="M161.395 6.44054V0H142.506V32.1111H161.395V25.6706H148.822V19.2606H161.395V12.8505H148.822V6.44054H161.395Z" fill="black"></path>
  </g>
  <defs>
    <clipPath id="clip0_13_1210">
      <rect width="160.556" height="34" fill="white" transform="translate(0.838867)"></rect>
    </clipPath>
  </defs>
</svg>
