<?xml version="1.0" encoding="UTF-8"?>
<svg xmlns="http://www.w3.org/2000/svg" width="234" height="48" viewBox="0 0 234 48" fill="none">
  <g clip-path="url(#clip0_271_2089)">
    <g clip-path="url(#clip1_271_2089)">
      <path fill-rule="evenodd" clip-rule="evenodd" d="M0 22.3883H22.0811V0.306641H0V22.3883Z" fill="#002E6D"></path>
      <path fill-rule="evenodd" clip-rule="evenodd" d="M0 22.3883H22.0811V0.306641H0V22.3883ZM24.8225 22.3883H46.9036V0.306641H24.8225V22.3883ZM0 47.2845H22.0811V25.2028H0V47.2845ZM24.8225 47.2845H46.9036V25.2028H24.8225V47.2845ZM58.782 36.9192H58.9882C61.6647 36.9192 62.694 35.231 62.694 31.4417V13.9806C62.694 11.4688 62.4055 10.439 59.976 10.439H58.782V9.28591H65.8653L80.238 31.7303V16.2868C80.238 12.1277 79.8671 10.5628 76.2016 10.439V9.28591H85.3445V10.439C81.9262 10.6037 81.5558 12.1692 81.5558 16.2868V38.4426H80.238L64.0118 13.1985V31.4417C64.0118 35.4366 64.6707 36.9192 67.8006 36.9192H67.9238V38.1546H58.782V36.9192Z" fill="#002E6D"></path>
      <path fill-rule="evenodd" clip-rule="evenodd" d="M92.1801 33.8303C92.1801 36.6721 92.6737 36.9192 96.0921 36.9192C101.446 36.9192 104.04 34.9424 104.04 30.2477C104.04 25.6768 101.57 23.6172 96.3806 23.6172H92.1801V33.8303ZM95.2684 22.3408C100.828 22.3408 103.382 20.735 103.382 16.3692C103.382 11.5512 100.664 10.3981 95.4746 10.3981C92.5095 10.3981 92.1801 10.9332 92.1801 13.6512V22.3408H95.2684ZM84.397 36.9192H86.0028C88.1028 36.9192 88.3913 36.3426 88.3913 34.0364V13.2808C88.3913 11.0155 88.1028 10.3981 86.0028 10.3981H84.397V9.28589H97.5752C104.288 9.28589 107.747 11.9215 107.747 15.9988C107.747 19.3343 105.193 21.8875 100.416 22.9583C105.605 23.6586 108.53 26.5413 108.53 30.4533C108.53 35.2719 104.288 38.1546 95.7217 38.1546H84.397V36.9192Z" fill="#002E6D"></path>
      <path fill-rule="evenodd" clip-rule="evenodd" d="M118.672 36.9192H120.32V38.1546H108.501V36.9192H110.107C112.166 36.9192 112.495 36.3017 112.495 34.0364V13.2808C112.495 11.0155 112.207 10.3981 110.107 10.3981H108.501V9.28589H120.32V10.3981H118.672C116.572 10.3981 116.284 11.057 116.284 13.2808V20.9406H128.597V13.2808C128.597 11.0155 128.309 10.3981 126.209 10.3981H124.603V9.28589H136.422V10.3981H134.816C132.716 10.3981 132.427 11.057 132.427 13.2808V34.0364C132.427 36.3017 132.716 36.9192 134.816 36.9192H136.422V38.1546H124.603V36.9192H126.209C128.268 36.9192 128.597 36.3017 128.597 34.0364V22.5464H116.284V34.0364C116.284 36.3017 116.572 36.9192 118.672 36.9192ZM151.947 33.8303C151.947 36.6721 152.441 36.9192 155.859 36.9192C161.213 36.9192 163.807 34.9424 163.807 30.2477C163.807 25.6768 161.336 23.6172 156.148 23.6172H151.947V33.8303ZM155.035 22.3408C160.595 22.3408 163.148 20.735 163.148 16.3692C163.148 11.5512 160.43 10.3981 155.241 10.3981C152.276 10.3981 151.947 10.9332 151.947 13.6512V22.3408H155.035ZM144.164 36.9192H145.769C147.87 36.9192 148.158 36.3426 148.158 34.0364V13.2808C148.158 11.0155 147.87 10.3981 145.769 10.3981H144.164V9.28589H157.342C164.055 9.28589 167.513 11.9215 167.513 15.9988C167.513 19.3343 164.96 21.8875 160.183 22.9583C165.373 23.6586 168.296 26.5413 168.296 30.4533C168.296 35.2719 164.055 38.1546 155.489 38.1546H144.164V36.9192ZM174.028 32.9657C174.028 35.3543 175.222 36.7135 177.076 36.7135C179.135 36.7135 181.235 35.0248 182.141 32.0188V25.9648C176.993 28.5181 174.028 29.1355 174.028 32.9657ZM175.469 38.5255C172.134 38.5255 169.869 36.2603 169.869 33.0895C169.869 29.8768 172.093 28.3124 176.499 26.9946C178.558 26.3766 180.453 25.6768 182.141 24.647V23.2877C182.141 19.9932 181.276 18.5521 177.899 18.5521C175.469 18.5521 173.864 19.4581 173.864 20.4464C173.864 21.6819 176.211 21.5172 176.211 23.4939C176.211 24.6884 175.14 25.6768 173.74 25.6768C172.134 25.6768 170.94 24.4823 170.94 22.5879C170.94 19.5813 173.864 17.399 178.805 17.399C184.241 17.399 185.848 19.5813 185.848 24.359V33.9132C185.848 35.807 186.053 36.7135 187.33 36.7135C188.401 36.7135 188.854 35.9717 188.854 34.2835V32.1012H190.007V34.1188C190.007 37.0015 188.731 38.5255 185.971 38.5255C183.706 38.5255 182.47 37.2486 182.141 34.7783C180.535 37.2486 178.147 38.5255 175.469 38.5255ZM190.089 36.9192H191.201C193.013 36.9192 193.342 36.5897 193.342 34.7368V21.023C193.342 19.3757 192.89 19.0877 191.201 19.0877H190.089V17.8523C192.519 17.8523 194.825 17.7699 197.049 17.6461V20.9815C198.408 18.7168 200.631 17.4813 202.897 17.4813C207.098 17.4813 208.292 19.9932 208.292 24.9764V34.7368C208.292 36.7544 208.703 36.9192 210.598 36.9192H211.463V38.1546H201.579V36.9192H202.443C204.256 36.9192 204.585 36.5897 204.585 34.7368V23.741C204.585 20.7759 203.762 19.3343 201.579 19.3343C198.861 19.3343 197.049 21.3939 197.049 25.841V34.7368C197.049 36.5488 197.337 36.9192 199.191 36.9192H200.055V38.1546H190.089V36.9192Z" fill="#002E6D"></path>
      <path fill-rule="evenodd" clip-rule="evenodd" d="M224.023 22.1761C224.764 21.4758 225.176 20.8169 225.176 20.2818C225.176 19.4172 224.517 19.0049 223.159 19.0049H222.459V17.8523H232.136V19.0049H231.889C229.253 19.0049 227.895 20.2403 225.959 21.97L222.747 24.8118L229.336 34.6545C230.407 36.2603 231.23 36.9192 233.083 36.9192H233.413V38.1547H222.952V36.9192H224.27C225.341 36.9192 225.877 36.796 225.877 36.2189C225.877 35.9718 225.712 35.7252 225.465 35.3543L220.111 27.2003L218.093 28.93V34.7369C218.093 36.5489 218.381 36.9192 220.235 36.9192H221.099V38.1547H211.133V36.9192H212.245C214.057 36.9192 214.387 36.5898 214.387 34.7369V12.4572C214.387 10.81 213.934 10.5214 212.245 10.5214H211.133V9.28596C213.563 9.28596 215.911 9.20359 218.093 9.08032V27.5298L224.023 22.1761ZM196.569 47.7421H195.869L195.542 43.7761H195.52L193.985 47.7858H193.585L192.049 43.7761H192.027L191.707 47.7421H191.008L191.46 42.7207H192.333L193.781 46.5994H193.796L195.244 42.7207H196.111L196.569 47.7421ZM199.877 45.7125C199.869 45.3263 199.579 44.7214 198.879 44.7214C198.188 44.7214 197.882 45.2969 197.861 45.7125H199.877ZM200.517 46.1789H197.853C197.889 46.8618 198.326 47.2769 198.967 47.2769C199.615 47.2769 200.03 46.9267 200.109 46.876L200.4 47.2769C200.357 47.3123 199.913 47.8234 198.879 47.8234C197.853 47.8234 197.147 47.1094 197.147 46.0103C197.147 44.9194 197.941 44.2201 198.901 44.2201C199.862 44.2201 200.539 44.9047 200.539 45.8729C200.539 46.0027 200.517 46.1789 200.517 46.1789ZM206.239 47.7421H205.547V45.7267C205.547 45.3263 205.476 44.7945 204.915 44.7945C204.362 44.7945 204.085 45.3263 204.085 45.9438V47.7421H203.386V45.7267C203.386 45.2172 203.263 44.7945 202.761 44.7945C202.207 44.7945 201.931 45.3263 201.931 45.9438V47.7421H201.232V44.2851H201.931L201.923 44.83H201.945C202.041 44.6478 202.184 44.4949 202.36 44.3876C202.536 44.2802 202.737 44.2224 202.943 44.2201C203.452 44.2201 203.808 44.4525 203.968 44.9047C204.201 44.4683 204.58 44.2201 205.067 44.2201C205.991 44.2201 206.239 44.8965 206.239 45.6471V47.7421ZM208.979 44.788C208.287 44.788 207.873 45.3116 207.873 46.0027C207.873 46.6932 208.287 47.2251 208.979 47.2251C209.671 47.2251 210.079 46.6932 210.079 46.0027C210.079 45.3116 209.671 44.788 208.979 44.788ZM209.109 47.8234C208.607 47.8234 208.178 47.6189 207.895 47.1956H207.88V47.7421H207.211V42.7207H207.902V44.824H207.916C208.178 44.4525 208.579 44.2201 209.125 44.2201C210.136 44.2201 210.791 44.9903 210.791 46.0103C210.791 47.0363 210.136 47.8234 209.109 47.8234ZM214.017 45.7125C214.011 45.3263 213.718 44.7214 213.02 44.7214C212.329 44.7214 212.024 45.2969 212.001 45.7125H214.017ZM214.658 46.1789H211.994C212.03 46.8618 212.467 47.2769 213.108 47.2769C213.755 47.2769 214.171 46.9267 214.25 46.876L214.541 47.2769C214.497 47.3123 214.054 47.8234 213.02 47.8234C211.994 47.8234 211.288 47.1094 211.288 46.0103C211.288 44.9194 212.081 44.2201 213.041 44.2201C214.003 44.2201 214.679 44.9047 214.679 45.8729C214.679 46.0027 214.658 46.1789 214.658 46.1789ZM217.258 44.9254H217.228C217.109 44.8747 216.98 44.85 216.851 44.8529C216.545 44.8529 216.355 45.0492 216.284 45.1447C216.217 45.239 216.071 45.508 216.071 46.0169V47.7421H215.372V44.2851H216.071L216.064 44.8169H216.086C216.254 44.423 216.567 44.2201 216.938 44.2201C217.171 44.2201 217.303 44.2774 217.303 44.2774L217.258 44.9254ZM222.122 43.3109H220.04V44.9843H221.999V45.5729H220.04V47.7421H219.334V42.7207H222.122V43.3109ZM225.784 43.7909C225.507 43.5285 225.057 43.324 224.445 43.324H223.637V47.1307H224.445C225.057 47.1307 225.507 46.9267 225.784 46.6654C226.061 46.4031 226.381 45.9601 226.381 45.2325C226.381 44.5043 226.061 44.0521 225.784 43.7909ZM226.323 47.0871C225.959 47.4225 225.319 47.7421 224.445 47.7421H222.932V42.7207H224.445C225.319 42.7207 225.959 43.0403 226.323 43.3758C226.687 43.7101 227.101 44.2932 227.101 45.2325C227.101 46.1691 226.687 46.7532 226.323 47.0871ZM227.926 47.7421H228.633V42.7207H227.926V47.7421ZM233.859 47.0871C233.546 47.4372 232.978 47.8294 232.025 47.8294C230.563 47.8294 229.456 46.8034 229.456 45.2391C229.456 43.6741 230.584 42.6476 232.025 42.6476C232.965 42.6476 233.531 43.0403 233.808 43.3109L233.51 43.8781C233.313 43.63 232.753 43.2667 232.054 43.2667C230.969 43.2667 230.184 44.0456 230.184 45.2243C230.184 46.4031 230.978 47.1814 232.054 47.1814C232.716 47.1814 233.227 46.9267 233.554 46.5716L233.859 47.0871ZM134.75 12.2107H134.602V12.5669H134.75C134.873 12.5669 134.982 12.5358 134.982 12.3912C134.982 12.2412 134.873 12.2107 134.75 12.2107ZM135.31 13.2852H134.998L134.728 12.7807H134.602V13.2852H134.338V11.9969H134.793C135.079 11.9969 135.254 12.143 135.254 12.3847C135.254 12.6285 135.094 12.718 134.991 12.7469L135.31 13.2852ZM134.765 11.7061C134.239 11.7061 133.83 12.1147 133.83 12.6416C133.83 13.1685 134.239 13.576 134.765 13.576C135.295 13.576 135.701 13.1685 135.701 12.6416C135.701 12.1147 135.295 11.7061 134.765 11.7061ZM134.765 13.7396C134.621 13.7414 134.477 13.7143 134.343 13.6598C134.209 13.6052 134.087 13.5245 133.985 13.4221C133.882 13.3198 133.801 13.1981 133.747 13.064C133.692 12.93 133.665 12.7863 133.666 12.6416C133.664 12.4967 133.692 12.3529 133.746 12.2187C133.801 12.0844 133.882 11.9625 133.984 11.86C134.086 11.7575 134.208 11.6766 134.343 11.6219C134.477 11.5673 134.621 11.5401 134.765 11.542C135.385 11.542 135.867 12.0214 135.867 12.6416C135.869 12.7866 135.842 12.9304 135.787 13.0647C135.732 13.1989 135.651 13.3208 135.548 13.4231C135.445 13.5255 135.323 13.6062 135.189 13.6606C135.054 13.7149 134.91 13.7418 134.765 13.7396Z" fill="#002E6D"></path>
    </g>
  </g>
  <defs>
    <clipPath id="clip0_271_2089">
      <rect width="234" height="48" fill="white"></rect>
    </clipPath>
    <clipPath id="clip1_271_2089">
      <rect width="234" height="48" fill="white"></rect>
    </clipPath>
  </defs>
</svg>
