<?xml version="1.0" encoding="UTF-8"?>
<svg xmlns="http://www.w3.org/2000/svg" width="244" height="48" viewBox="0 0 244 48" fill="none">
  <path d="M186.103 43.4191C186.103 40.5912 186.171 39.7702 186.399 39.8386C186.536 39.907 186.696 40.1579 186.741 40.4544L186.81 40.9561L187.494 40.3632C188.475 39.565 189.524 39.6106 190.527 40.4772C191.85 41.6631 191.827 43.6928 190.436 44.9243C189.774 45.5172 188.155 45.54 187.54 44.9927C187.289 44.7646 187.015 44.5822 186.947 44.5822C186.855 44.5822 186.787 45.1523 186.787 45.8365C186.787 46.7943 186.719 47.0908 186.445 47.0908C186.148 47.0908 186.103 46.5207 186.103 43.4191ZM190.276 44.1033C190.892 43.3507 190.801 41.7315 190.094 41.0473C188.52 39.4509 185.943 41.6859 187.015 43.67C187.631 44.8103 189.478 45.0611 190.276 44.1033Z" fill="#3A5674"></path>
  <path d="M141.974 45.2211C140.833 44.6054 140.628 43.5107 141.518 42.6441C141.996 42.1424 142.27 42.0739 143.57 42.0739C145.212 42.0739 145.349 41.8915 144.482 41.0477C143.889 40.4319 143.182 40.3407 142.202 40.7056C141.677 40.9109 141.609 40.888 141.677 40.546C141.768 40.067 143.137 39.6565 143.958 39.8618C144.277 39.953 144.779 40.2039 145.075 40.4547C145.554 40.8424 145.623 41.1161 145.714 42.8493C145.737 43.944 145.714 44.9931 145.623 45.2211C145.486 45.586 145.463 45.586 145.189 45.1983C144.916 44.8334 144.824 44.8334 144.231 45.1527C143.456 45.5404 142.612 45.586 141.974 45.2211ZM144.505 44.2405C144.824 43.9212 145.052 43.4879 145.007 43.2826C144.824 42.3704 142.042 42.5072 141.746 43.4651C141.335 44.7194 143.433 45.3123 144.505 44.2405Z" fill="#3A5674"></path>
  <path d="M150.868 45.2207C150.64 44.6506 150.868 37.6265 151.096 37.6265C151.233 37.6265 151.347 38.3791 151.392 39.2913L151.461 40.9561L152.145 40.3859C153.057 39.6106 154.152 39.6106 155.064 40.3859C156.455 41.549 156.501 43.6015 155.178 44.833C154.357 45.6084 152.852 45.5856 152.031 44.833C151.461 44.2857 151.438 44.2857 151.438 44.7646C151.438 45.3348 151.027 45.654 150.868 45.2207ZM154.243 44.5366C155.018 44.1261 155.292 43.6243 155.315 42.6209C155.315 41.4578 154.471 40.4772 153.445 40.4772C152.441 40.4772 151.438 41.5718 151.438 42.6437C151.438 43.2595 151.62 43.6471 152.099 44.1489C152.806 44.8558 153.445 44.9699 154.243 44.5366Z" fill="#3A5674"></path>
  <path d="M159.078 45.2666C158.28 44.9473 157.573 43.9666 157.436 43.0316C157.116 40.5914 159.671 38.881 161.45 40.3634C162.134 40.9563 162.795 42.4159 162.499 42.7123C162.407 42.8036 161.381 42.872 160.195 42.872C157.778 42.872 157.595 43.0316 158.713 44.1491C159.465 44.8789 160.309 44.9929 161.244 44.4684C161.974 44.0351 162.156 44.0579 162.156 44.4912C162.156 45.1753 160.127 45.6999 159.078 45.2666ZM161.7 41.9826C161.7 41.8229 161.495 41.4124 161.221 41.0703C160.537 40.2037 159.42 40.2493 158.644 41.1844C158.325 41.5721 158.051 41.9826 158.051 42.0966C158.051 42.2106 158.872 42.3018 159.876 42.3018C161.267 42.3018 161.7 42.2334 161.7 41.9826Z" fill="#3A5674"></path>
  <path d="M165.121 45.3348C164.414 45.0839 164.209 44.491 164.209 42.6209C164.209 40.9561 164.163 40.7509 163.753 40.6368C163.502 40.5684 163.297 40.4088 163.297 40.2491C163.297 40.0895 163.502 39.9299 163.753 39.8615C164.095 39.7702 164.209 39.5422 164.209 38.9492C164.209 38.3107 164.3 38.1738 164.62 38.2423C164.893 38.3107 164.984 38.5159 164.939 39.0633C164.893 39.7702 164.916 39.793 165.805 39.793C166.558 39.793 166.718 39.8615 166.718 40.2491C166.718 40.6368 166.558 40.7053 165.805 40.7053H164.893V42.3929C164.893 44.3085 165.235 44.9471 166.17 44.719C166.558 44.605 166.718 44.6734 166.718 44.9015C166.718 45.4032 165.92 45.6085 165.121 45.3348Z" fill="#3A5674"></path>
  <path d="M169.454 45.335C168.747 45.0841 168.542 44.4912 168.542 42.5983C168.542 41.0703 168.474 40.7054 168.2 40.7054C168.018 40.7054 167.858 40.5002 167.858 40.2493C167.858 39.9985 168.018 39.7932 168.2 39.7932C168.451 39.7932 168.542 39.5423 168.542 38.9722C168.542 38.3336 168.61 38.174 168.953 38.2424C169.249 38.288 169.317 38.4933 169.272 39.0634C169.203 39.7704 169.203 39.7932 170.138 39.7932C170.914 39.7932 171.074 39.8616 171.005 40.2037C170.959 40.4774 170.686 40.6142 170.07 40.6598L169.226 40.7282V42.4158C169.226 44.3315 169.546 44.9017 170.503 44.6736C170.891 44.5824 171.051 44.628 171.051 44.8789C171.051 45.4034 170.253 45.6314 169.454 45.335Z" fill="#3A5674"></path>
  <path d="M173.56 45.1979C172.807 44.8102 171.963 43.5103 171.963 42.7121C171.963 41.2981 173.286 39.793 174.517 39.793C175.589 39.793 176.479 40.4543 176.912 41.5718C177.391 42.8717 177.231 42.9858 174.631 42.9858H172.602L173.035 43.7155C173.286 44.126 173.742 44.5593 174.084 44.6962C174.677 44.9014 174.882 44.8558 176.365 44.2401C176.638 44.126 176.752 44.1945 176.752 44.4453C176.752 44.8786 175.475 45.4944 174.654 45.4944C174.358 45.4944 173.879 45.3575 173.56 45.1979ZM176.296 41.9823C176.296 41.3438 175.361 40.4771 174.677 40.4771C173.993 40.4771 172.647 41.5262 172.647 42.0507C172.647 42.2104 173.331 42.3016 174.472 42.3016C175.863 42.3016 176.296 42.2332 176.296 41.9823Z" fill="#3A5674"></path>
  <path d="M178.691 45.2207C178.622 45.0382 178.6 43.7839 178.622 42.3928C178.668 40.3631 178.759 39.907 179.033 39.907C179.284 39.907 179.352 40.1122 179.306 40.5683L179.238 41.2297L180.059 40.5227C180.834 39.8158 181.313 39.6333 181.61 39.9298C181.838 40.1578 181.519 40.7052 181.108 40.7052C180.903 40.728 180.492 40.9332 180.173 41.1841C179.694 41.5946 179.603 41.8911 179.489 43.5103C179.421 44.6734 179.284 45.3803 179.101 45.4487C178.942 45.4944 178.759 45.3803 178.691 45.2207Z" fill="#3A5674"></path>
  <path d="M196.479 45.2208C195.339 44.5366 195.156 43.5104 196.023 42.6438C196.502 42.1421 196.776 42.0736 198.076 42.0736C198.897 42.0736 199.558 41.9824 199.558 41.8684C199.558 41.7772 199.353 41.4123 199.079 41.0702C198.577 40.4316 197.619 40.272 196.776 40.7281C196.205 41.0474 195.749 40.6825 196.228 40.272C196.753 39.8387 198.121 39.7019 198.874 40.0211C199.9 40.4544 200.242 41.2982 200.242 43.4192C200.242 45.1752 199.9 46.0874 199.626 45.0612C199.512 44.6051 199.467 44.5823 199.102 44.9243C198.554 45.4033 197.072 45.5857 196.479 45.2208ZM199.011 44.2402C199.763 43.4876 199.649 42.9403 198.691 42.7122C197.072 42.2789 195.613 43.3964 196.502 44.377C197.072 45.0156 198.304 44.9471 199.011 44.2402Z" fill="#3A5674"></path>
  <path d="M203.298 45.2663C202.682 45.0155 201.884 43.898 201.701 43.0542C201.405 41.5718 202.887 39.793 204.392 39.793C205.099 39.793 206.627 40.4543 206.627 40.7508C206.627 41.1385 205.943 41.1841 205.441 40.842C204.666 40.2947 203.822 40.3859 203.138 41.1157C201.587 42.7349 203.115 45.4032 205.122 44.605C206.308 44.126 206.627 44.0576 206.627 44.3313C206.627 44.7418 205.213 45.4944 204.461 45.4716C204.096 45.4716 203.548 45.3803 203.298 45.2663Z" fill="#3A5674"></path>
  <path d="M209.228 45.2665C208.293 44.9017 207.54 43.7158 207.54 42.5983C207.54 41.7089 207.654 41.458 208.429 40.6826C209.524 39.5879 210.55 39.4739 211.622 40.3861C212.261 40.9107 212.945 42.4615 212.648 42.7351C212.603 42.8035 211.577 42.8948 210.391 42.9404C209.205 43.0088 208.224 43.1456 208.224 43.2596C208.224 43.3737 208.521 43.7842 208.886 44.1491C209.638 44.8788 210.482 44.9929 211.417 44.4683C212.147 44.035 212.329 44.0578 212.329 44.4912C212.329 44.8788 211.029 45.4946 210.231 45.4718C209.935 45.4718 209.501 45.3806 209.228 45.2665ZM211.873 41.9825C211.873 41.8229 211.668 41.4124 211.394 41.0703C210.71 40.2037 209.593 40.2493 208.817 41.1843C208.498 41.572 208.224 41.9825 208.224 42.0966C208.224 42.2106 209.045 42.3018 210.049 42.3018C211.44 42.3018 211.873 42.2334 211.873 41.9825Z" fill="#3A5674"></path>
  <path d="M218.03 45.0383C217.642 44.6507 217.574 44.2858 217.574 42.6666C217.574 41.1842 217.506 40.7281 217.232 40.6141C217.05 40.5456 216.89 40.3404 216.89 40.1351C216.89 39.9527 217.05 39.7931 217.232 39.7931C217.414 39.7931 217.574 39.6334 217.574 39.451C217.574 39.2685 217.779 39.1089 218.03 39.1089C218.281 39.1089 218.463 39.2457 218.441 39.4054C218.395 39.565 218.692 39.7018 219.239 39.7474C219.923 39.8159 220.083 39.9071 220.037 40.2036C219.991 40.4544 219.695 40.6141 219.17 40.6597L218.372 40.7281L218.395 42.5525C218.418 44.5366 218.623 44.9243 219.581 44.6963C219.923 44.605 220.083 44.6735 220.083 44.9015C220.083 45.6085 218.692 45.6997 218.03 45.0383Z" fill="#3A5674"></path>
  <path d="M222.637 45.1523C222.112 44.9242 221.747 44.5137 221.428 43.7611C220.972 42.7577 220.972 42.6665 221.337 41.7086C221.793 40.5227 222.842 39.793 224.074 39.793C224.758 39.793 225.1 39.9754 225.807 40.6824C226.582 41.435 226.696 41.7086 226.696 42.5753C226.696 44.6734 224.553 46.0189 222.637 45.1523ZM225.419 44.126C225.761 43.784 225.898 43.3735 225.898 42.6209C225.898 41.7543 225.784 41.4806 225.26 41.0245C224.37 40.2719 223.412 40.3175 222.568 41.1385C221.633 42.0735 221.656 43.2138 222.591 44.1716C223.207 44.7646 223.412 44.8558 224.119 44.7418C224.575 44.6506 225.168 44.3769 225.419 44.126Z" fill="#3A5674"></path>
  <path d="M231.6 45.2208C231.372 44.6278 231.6 37.6265 231.828 37.6721C231.964 37.7177 232.079 38.4019 232.124 39.2229C232.17 40.0439 232.238 40.7052 232.307 40.7052C232.375 40.7052 232.694 40.5 233.014 40.2491C234.542 39.0404 236.959 40.5456 236.959 42.7121C236.959 43.5559 236.115 44.8331 235.271 45.2208C234.542 45.5856 233.264 45.426 232.854 44.9243C232.489 44.491 232.17 44.491 232.17 44.9015C232.17 45.3576 231.736 45.5856 231.6 45.2208ZM235.134 44.4682C236.047 43.9893 236.412 42.8262 235.955 41.7771C235.363 40.3404 234.04 40.0667 232.877 41.1386C231.508 42.4385 232.307 44.6962 234.177 44.7875C234.336 44.8103 234.77 44.6506 235.134 44.4682Z" fill="#3A5674"></path>
  <path d="M239.696 45.1979C238.943 44.8102 238.1 43.5103 238.1 42.7121C238.1 41.2297 239.422 39.793 240.768 39.793C241.817 39.793 243.117 41.0245 243.117 42.0279C243.117 42.8945 242.843 42.9858 240.563 42.9858H238.738L239.171 43.7155C239.422 44.126 239.878 44.5593 240.221 44.6962C240.813 44.9014 241.019 44.8558 242.501 44.2401C242.775 44.126 242.889 44.1945 242.889 44.4453C242.889 44.8786 241.612 45.4944 240.791 45.4944C240.494 45.4944 240.015 45.3575 239.696 45.1979ZM242.433 41.9139C242.433 41.2525 241.498 40.4771 240.699 40.4771C240.152 40.4771 239.81 40.6596 239.377 41.1841C239.057 41.5718 238.784 41.9823 238.784 42.0963C238.784 42.2104 239.605 42.3016 240.608 42.3016C242.159 42.3016 242.433 42.256 242.433 41.9139Z" fill="#3A5674"></path>
  <path d="M193.218 41.5037C193.263 39.1775 193.377 37.7407 193.514 37.7407C193.651 37.7407 193.765 39.1775 193.811 41.5037C193.856 44.7649 193.811 45.2666 193.514 45.2666C193.218 45.2666 193.172 44.7649 193.218 41.5037Z" fill="#3A5674"></path>
  <path d="M14.3989 34.2058C10.75 30.6025 10.6132 30.4201 10.6132 29.5534C10.6132 28.7096 10.7729 28.4816 12.05 27.1817L13.4639 25.7449L12.8254 25.1292C12.4833 24.7871 12.0956 24.5134 11.9815 24.5134C11.8675 24.5134 11.1834 25.0835 10.4992 25.7677C9.56415 26.7027 8.99401 27.0676 8.35545 27.1817C7.51165 27.3185 7.48884 27.2957 3.77152 23.5784C-1.24571 18.6068 -1.24571 19.2453 3.70311 14.2965C8.19581 9.82658 8.1502 9.82658 10.3623 11.9703C11.1605 12.7229 11.8675 13.3387 11.9587 13.3387C12.1412 13.3387 13.2359 12.1984 13.2359 11.9931C13.2359 11.9247 12.6657 11.2861 11.9815 10.602C11.0465 9.66694 10.6816 9.0968 10.5676 8.48105C10.4308 7.63724 10.4764 7.59163 13.8288 4.12518C17.5689 0.293834 18.3899 -0.299113 19.3706 0.111389C19.7127 0.248222 21.5599 1.93584 23.4756 3.85151C28.1963 8.57228 28.1735 8.07055 23.5896 12.7001C21.7195 14.5702 19.9863 16.2122 19.7355 16.349C18.7548 16.8963 18.0022 16.6227 16.4971 15.1175L15.0603 13.6807L14.3305 14.4105L13.6007 15.1403L15.0147 16.6227C16.2234 17.877 16.4286 18.2191 16.4286 18.926C16.4286 19.633 16.2234 19.9751 15.0375 21.2066L13.6464 22.6662L14.4218 23.3275L15.1743 24.0117L16.5883 22.6662C17.797 21.5031 18.1163 21.3206 18.846 21.3206C19.6442 21.3206 19.9407 21.5487 23.2931 24.9011C26.9192 28.4816 27.3753 29.1201 26.9876 30.1692C26.7824 30.6937 20.8073 36.8969 19.8495 37.5582C18.6864 38.3792 18.3899 38.1968 14.3989 34.2058ZM19.1653 35.7794C19.1653 35.7338 18.8917 35.6882 18.5496 35.6882C18.0707 35.6882 18.0022 35.7566 18.2303 35.8934C18.5268 36.0759 19.1653 36.0074 19.1653 35.7794ZM21.4915 32.7918C23.4984 30.8306 24.0685 29.9868 23.8633 29.1886C23.6808 28.4588 19.9863 24.7871 19.2565 24.6046C18.3443 24.3766 17.2953 25.0379 15.5164 26.9764C13.9656 28.664 13.5779 29.4394 13.92 30.306C14.0112 30.5797 14.9691 31.6288 16.0409 32.6778C17.7514 34.3426 18.0707 34.5479 18.8232 34.5479C19.5758 34.5479 19.8723 34.3426 21.4915 32.7918ZM11.0921 21.9592C13.92 19.1769 13.92 18.5611 10.8869 15.6876C8.28704 13.2246 7.87654 13.2474 4.98022 16.2578C3.38383 17.877 3.20138 18.1734 3.20138 18.9488C3.20138 19.7242 3.38383 19.9979 5.20828 21.8223C7.10114 23.7152 7.28359 23.8292 8.19581 23.8292C9.10804 23.8292 9.29048 23.7152 11.0921 21.9592ZM19.0513 14.4789C19.1425 14.3421 18.846 14.2509 18.3215 14.2509C17.683 14.2509 17.5461 14.3193 17.797 14.4789C18.2531 14.7754 18.8688 14.7754 19.0513 14.4789ZM19.6898 13.0878C20.5337 12.6773 23.658 9.32486 23.8177 8.6863C24.0229 7.84249 23.5668 7.08991 21.5599 5.12863C19.9407 3.50943 19.7811 3.4182 18.8232 3.4182C17.8426 3.4182 17.7286 3.50943 15.8129 5.40229C13.9656 7.24955 13.806 7.4776 13.806 8.32141C13.806 9.14242 13.9656 9.39328 15.4024 10.8528C17.7514 13.2474 18.5496 13.6579 19.6898 13.0878ZM25.3228 8.38983C25.3228 8.2758 25.2088 8.04775 25.0948 7.8653C24.9123 7.59163 24.8667 7.61444 24.8667 8.04775C24.8667 8.32141 24.9808 8.54947 25.0948 8.54947C25.2316 8.54947 25.3228 8.48105 25.3228 8.38983Z" fill="#3A5674"></path>
  <path d="M54.7194 27.729C51.2986 26.9992 48.3339 23.738 47.9006 20.2487C47.376 16.0069 49.2917 12.2211 52.8266 10.4879C54.5826 9.6213 57.6842 9.41605 59.6454 10.0546C60.9454 10.4423 63.2943 11.9247 63.2943 12.3352C63.2943 12.4492 63.0663 12.8369 62.7926 13.179L62.2909 13.8175L61.1962 13.0421C58.9385 11.4229 56.5667 11.0124 54.4002 11.8334C52.0284 12.7457 50.66 14.3649 50.0215 16.9419C48.6075 22.917 54.1037 27.7974 59.5998 25.4484C60.1472 25.2203 60.9682 24.6958 61.4015 24.3081C61.8576 23.9204 62.3137 23.6011 62.4049 23.624C62.519 23.624 62.8382 23.9204 63.1119 24.2625L63.6364 24.9239L62.4049 25.8817C61.7208 26.4062 60.6033 27.0448 59.9419 27.2957C58.6192 27.7974 56.0194 28.0026 54.7194 27.729Z" fill="#3A5674"></path>
  <path d="M68.95 27.5009C67.4904 26.9764 66.7834 26.4291 65.8028 25.1519C63.7731 22.4837 64.0696 18.6295 66.5098 16.235C67.9693 14.7754 68.9272 14.3877 71.1621 14.3877C72.8269 14.3877 73.2602 14.4561 74.2637 14.9806C78.2091 17.056 79.1897 22.1872 76.2934 25.6081C74.583 27.5693 71.3902 28.4132 68.95 27.5009ZM73.4427 25.6081C74.104 25.266 74.7198 24.6958 75.2215 23.9661C75.8829 22.9626 75.9513 22.7117 75.9513 21.1154C75.9513 19.5646 75.8829 19.2225 75.2899 18.3103C74.3549 16.8279 72.9182 16.0297 71.1849 16.0297C69.7254 16.0297 68.8359 16.3946 67.9465 17.3752C66.7378 18.6523 66.5326 19.2225 66.5098 20.9329C66.5098 22.7117 66.9659 23.9433 68.0149 24.9011C69.3833 26.1782 71.7095 26.4747 73.4427 25.6081Z" fill="#3A5674"></path>
  <path d="M79.6459 23.2132C79.7143 19.2222 79.7827 18.3556 80.1248 17.7399C80.5125 17.0101 80.5125 16.9873 80.0564 16.9873C79.6459 16.9873 79.6003 16.8504 79.6003 15.733V14.4787H80.5125H81.4247V15.5277V16.5768L82.3142 15.7786C83.6825 14.5471 84.1158 14.3874 86.0315 14.3874C87.6051 14.3646 87.8787 14.433 88.7454 15.0488C89.3155 15.4593 89.9541 16.1891 90.2733 16.8276C90.8207 17.8767 90.8435 18.0819 90.8663 22.8711L90.8891 27.8199H89.9769H89.0646L88.9506 23.0308C88.8366 18.4696 88.8138 18.196 88.312 17.489C87.5138 16.3943 86.6016 16.0066 85.0736 16.1207C83.5001 16.2347 82.451 16.9189 81.8581 18.2188C81.4932 19.017 81.4247 19.7468 81.4247 23.5553V27.934H80.4897H79.5547L79.6459 23.2132Z" fill="#3A5674"></path>
  <path d="M93.0557 21.2064V14.4559L94.0363 14.5244L94.9941 14.5928L94.9257 15.5734C94.8345 16.6681 94.9713 16.7593 95.5871 15.9839C96.4993 14.8208 97.594 14.3647 99.4412 14.3875C101.311 14.3875 102.132 14.7068 103.113 15.7787C104.299 17.0558 104.458 17.9224 104.458 23.1677V27.9569L103.501 27.8885L102.52 27.82L102.497 23.2589C102.474 20.6819 102.36 18.4469 102.224 18.1277C102.109 17.8084 101.676 17.261 101.288 16.8961C99.8745 15.5506 96.9554 15.9155 95.7239 17.5575C95.0854 18.4469 94.8573 20.2714 94.9029 24.1711L94.9713 27.82L94.0135 27.8885L93.0557 27.9569V21.2064Z" fill="#3A5674"></path>
  <path d="M110.821 27.7974C108.905 27.4553 106.602 25.1748 106.032 23.0766C105.644 21.6627 105.872 19.1313 106.488 17.8998C107.72 15.4824 109.407 14.3877 111.984 14.3877C114.47 14.3877 116.158 15.3683 117.23 17.4436C117.663 18.2875 118.142 20.2944 118.142 21.2066V21.7767H112.896C108.86 21.7767 107.651 21.8451 107.651 22.0732C107.674 22.5065 108.541 24.3309 108.974 24.8099C109.498 25.38 110.798 26.0414 111.779 26.2238C113.056 26.4519 114.265 26.0414 116.135 24.6958C116.477 24.445 116.614 24.4906 117.047 24.9011L117.549 25.4256L116.887 26.1098C115.633 27.4325 112.965 28.1623 110.821 27.7974ZM116.089 19.8154C116.089 18.926 114.972 17.0331 114.174 16.5542C112.509 15.528 110.57 15.756 109.202 17.1472C108.472 17.877 107.651 19.519 107.651 20.2031C107.651 20.3172 109.544 20.4084 111.87 20.4084H116.089V19.8154Z" fill="#3A5674"></path>
  <path d="M124.117 27.615C120.924 26.5659 118.848 23.0538 119.51 19.8382C119.898 17.991 121.357 15.9385 122.931 15.0719C124.048 14.4561 124.367 14.3877 126.123 14.3877C128.153 14.3877 129.453 14.821 130.639 15.9157C131.255 16.4858 131.255 16.6226 130.753 17.2156C130.206 17.8313 129.886 17.7857 128.837 16.9419C128.039 16.3034 127.697 16.1893 126.352 16.1209C125.006 16.0297 124.641 16.0981 123.911 16.5542C122.133 17.6489 121.471 18.8348 121.471 20.9785C121.448 23.3731 122.429 24.9467 124.39 25.7677C126.101 26.4975 127.948 26.1554 129.499 24.8555L130.251 24.2169L130.821 24.7643L131.369 25.2888L130.753 25.9501C129.202 27.5693 126.238 28.2991 124.117 27.615Z" fill="#3A5674"></path>
  <path d="M136.797 27.7061C135.611 27.5009 134.813 26.8851 134.311 25.8133C133.946 24.9923 133.878 24.2853 133.878 20.5908V16.3033H133.08C132.646 16.3033 132.281 16.2349 132.259 16.1437C132.076 14.7525 132.144 14.5929 133.057 14.4789L133.946 14.3648L133.969 12.5404L133.992 10.7159L134.972 10.6475L135.93 10.5791V12.5176V14.4789H137.983H140.035V15.3911V16.3033H137.983H135.93V20.4083C135.93 22.9626 136.021 24.6958 136.181 25.0607C136.637 26.0413 138.142 26.3606 139.648 25.7676C139.967 25.6308 140.035 25.7448 140.035 26.4062C140.035 26.8623 139.944 27.2728 139.83 27.364C139.374 27.6377 137.595 27.843 136.797 27.7061ZM135.018 15.163C135.018 15.049 134.858 14.935 134.676 14.935C134.493 14.935 134.334 15.049 134.334 15.163C134.334 15.2999 134.493 15.3911 134.676 15.3911C134.858 15.3911 135.018 15.2999 135.018 15.163Z" fill="#3A5674"></path>
  <path d="M147.949 27.6835C144.642 26.9081 142.202 24.4223 141.289 20.933C140.833 19.1998 140.856 18.1051 141.381 16.2806C142.133 13.6352 143.821 11.6055 146.17 10.4652C148.063 9.55299 151.05 9.41615 153.194 10.1687C155.178 10.8757 157.253 12.8142 158.188 14.8439C158.736 16.0298 158.804 16.4631 158.827 18.698C158.85 21.0926 158.804 21.2751 158.12 22.689C157.299 24.331 155.931 25.859 154.517 26.68C152.692 27.7519 150.001 28.1624 147.949 27.6835ZM152.852 25.4713C154.197 24.8784 155.52 23.5556 156.25 22.0961C156.706 21.161 156.797 20.6365 156.797 18.8121C156.797 16.942 156.706 16.4631 156.204 15.3684C155.132 13.1107 152.601 11.4687 150.07 11.4459C147.424 11.4002 145.052 12.9054 143.775 15.414C143.251 16.4859 143.159 16.9192 143.159 18.698C143.159 20.4541 143.251 20.933 143.752 21.9136C144.824 24.0346 146.056 25.1292 148.086 25.7906C149.34 26.2011 151.506 26.0643 152.852 25.4713Z" fill="#3A5674"></path>
  <path d="M160.56 21.2064V14.4559L161.54 14.5244L162.498 14.5928L162.43 15.5734C162.339 16.6681 162.475 16.7593 163.091 15.9839C164.003 14.8208 165.098 14.3647 166.945 14.3875C168.861 14.3875 169.728 14.7296 170.663 15.8243C171.849 17.2382 171.985 18.0592 171.917 23.1449L171.849 27.82H170.936H170.024L170.001 23.601C170.001 21.2748 169.91 19.0171 169.819 18.5838C169.317 16.4172 166.558 15.3682 164.46 16.5541C162.681 17.5575 162.339 18.8346 162.407 24.1711L162.475 27.82L161.518 27.8885L160.56 27.9569V21.2064Z" fill="#3A5674"></path>
  <path d="M178.121 27.729C176.159 27.0904 174.951 26.0642 173.947 24.1941C173.537 23.4187 173.446 22.8942 173.446 21.0925C173.446 19.2681 173.537 18.7664 173.993 17.8998C175.27 15.4596 176.935 14.3877 179.489 14.3877C181.975 14.3877 183.662 15.3683 184.734 17.4436C185.168 18.2875 185.647 20.2944 185.647 21.2066V21.7767H180.378H175.11L175.27 22.4153C176.182 26.1554 180.492 27.4781 183.32 24.9011C183.868 24.3766 184.347 24.4906 184.826 25.2432C185.099 25.6993 184.483 26.2922 182.796 27.1816C181.587 27.8202 179.215 28.0939 178.121 27.729ZM183.594 19.9067C183.594 19.6102 183.389 18.9716 183.161 18.4471C181.929 15.7332 178.965 15.0719 176.844 17.0331C176 17.8085 175.156 19.4049 175.156 20.2259C175.156 20.3172 177.049 20.4084 179.375 20.4084H183.594V19.9067Z" fill="#3A5674"></path>
  <path d="M204.21 27.9341C203.48 27.6376 202.568 26.4061 202.385 25.5167C202.18 24.3992 202.819 22.8484 203.845 22.0046C204.78 21.2293 206.582 20.4995 208.452 20.1118C209.136 19.9749 209.752 19.7925 209.82 19.7013C209.889 19.6101 209.911 18.8119 209.866 17.9452C209.774 16.0068 209.182 15.163 207.95 15.163C206.901 15.163 206.24 15.6875 205.92 16.7593C205.555 17.9452 204.94 18.5838 204.164 18.5838C203.298 18.5838 202.978 18.1961 202.978 17.2155C202.978 16.3032 203.64 15.5278 205.031 14.7981C206.148 14.2279 209.615 14.2051 210.687 14.7753C212.192 15.5963 212.329 16.098 212.329 21.2293C212.329 25.8588 212.42 26.3377 213.218 26.3377C213.401 26.3377 213.743 26.1781 213.971 25.9728C214.336 25.6079 214.381 25.6307 214.518 25.9956C214.632 26.2921 214.45 26.6114 213.857 27.1587C212.169 28.7095 210.801 28.4586 209.911 26.3833C209.889 26.3377 209.41 26.6342 208.817 27.0219C207.243 28.0937 205.464 28.4586 204.21 27.9341ZM208.269 26.3377C209.706 25.7448 209.866 25.4483 209.866 23.1221C209.866 21.138 209.843 20.9784 209.41 20.91C208.68 20.7959 206.513 21.9362 205.738 22.8256C204.529 24.1712 204.871 26.064 206.399 26.6342C206.787 26.771 207.471 26.6798 208.269 26.3377Z" fill="#3A5674"></path>
  <path d="M186.011 27.7289C185.76 27.3412 186.08 27.022 186.695 27.022C187.539 27.022 188.109 26.2922 188.269 24.9238C188.36 24.2625 188.383 20.9785 188.337 17.6488C188.269 10.8528 188.246 10.8072 186.65 10.4879C186.171 10.4195 185.874 10.237 185.943 10.0774C186.011 9.87213 187.402 9.80371 191.257 9.80371C196.456 9.80371 196.479 9.80371 197.779 10.4195C199.717 11.3317 200.538 12.9737 200.014 14.935C199.626 16.3489 198.509 17.3068 196.684 17.8085L195.111 18.2418L196.137 18.4242C199.581 19.0856 201.337 20.8416 201.109 23.3503C200.926 25.2887 199.74 26.5658 197.391 27.3868C196.479 27.7061 195.248 27.7973 191.211 27.8886C187.653 27.957 186.102 27.9114 186.011 27.7289ZM196.297 26.3834C197.711 25.6536 198.235 24.7642 198.258 23.0766C198.258 21.5942 197.916 20.6136 197.095 19.8838C196.411 19.2452 193.606 18.5611 192.1 18.6295L190.778 18.6979V22.2784C190.778 25.7676 190.8 25.8589 191.348 26.4518C191.895 27.0448 192.009 27.0676 193.628 26.9763C194.769 26.9079 195.658 26.7027 196.297 26.3834ZM195.59 17.2155C198.167 16.0981 198.189 12.3123 195.635 11.0124C194.655 10.4879 192.009 10.3739 191.462 10.83C190.914 11.2861 190.664 12.6088 190.664 14.9806C190.664 18.0822 190.595 17.9681 192.807 17.7857C193.834 17.6945 195.065 17.4436 195.59 17.2155Z" fill="#3A5674"></path>
  <path d="M214.997 27.7975C214.655 27.4554 214.86 27.0221 215.362 27.0221C216.548 27.0221 216.662 26.5888 216.662 21.6172C216.662 17.4894 216.616 17.0332 216.251 16.6912C216.023 16.4631 215.613 16.3035 215.339 16.3035C215.065 16.3035 214.837 16.2122 214.837 16.0982C214.837 15.7561 215.362 15.4597 216.89 14.8667C217.711 14.5474 218.555 14.2281 218.783 14.1369C219.125 14.0001 219.17 14.1141 219.17 15.0263C219.17 16.1666 219.353 16.3035 219.946 15.6421C220.174 15.3912 220.881 14.9807 221.519 14.7071C222.91 14.1141 224.507 14.1825 225.533 14.9123C226.719 15.7789 226.924 16.7368 226.924 21.754C226.924 25.8362 226.97 26.2923 227.335 26.6344C227.563 26.8625 227.973 27.0221 228.247 27.0221C228.589 27.0221 228.749 27.1589 228.749 27.4782C228.749 27.9343 228.635 27.9343 225.738 27.8887C223.275 27.8431 222.705 27.7519 222.705 27.501C222.705 27.3186 223.024 27.0905 223.412 26.9765C224.552 26.68 224.689 26.0187 224.598 21.5031C224.53 18.0367 224.484 17.4665 224.073 16.7824C223.23 15.3684 221.679 15.3456 219.923 16.7368L219.17 17.3297V21.7996C219.17 25.7678 219.216 26.3151 219.581 26.6116C219.786 26.8168 220.174 27.0221 220.425 27.0677C220.675 27.1133 220.881 27.2958 220.881 27.4782C220.881 27.7519 220.379 27.8203 218.007 27.8887C216.434 27.9115 215.088 27.8659 214.997 27.7975Z" fill="#3A5674"></path>
  <path d="M229.547 27.7062C229.319 27.3642 229.593 27.0905 230.3 26.9537C231.44 26.7256 231.486 26.2923 231.486 18.0367C231.486 9.53016 231.508 9.59858 229.889 9.25649C228.498 8.98283 228.909 8.50391 231.258 7.70571C232.443 7.29521 233.493 6.95312 233.584 6.95312C233.675 6.95312 233.789 10.2143 233.812 14.1825L233.88 21.4119L235.819 19.4278C238.031 17.1244 238.647 16.2122 238.327 15.5965C238.19 15.3684 237.871 15.1631 237.598 15.1175C237.301 15.0719 237.05 14.8667 237.005 14.6614C236.936 14.2965 237.21 14.2509 240.152 14.2509C243.094 14.2509 243.367 14.2965 243.299 14.6614C243.253 14.8667 242.98 15.0947 242.66 15.1403C242.341 15.1631 241.794 15.414 241.406 15.6877C240.539 16.2578 237.415 19.3138 237.415 19.5646C237.415 19.9067 241.794 25.9958 242.41 26.4975C242.729 26.7712 243.231 26.9993 243.527 27.0221C243.915 27.0221 244.052 27.1361 243.983 27.4326C243.915 27.7747 243.573 27.8203 240.722 27.8203C238.031 27.8203 237.529 27.7747 237.529 27.4782C237.529 27.2957 237.757 27.1133 238.031 27.0677C238.829 26.9537 239.126 26.4291 238.806 25.7222C238.601 25.266 236.434 22.0961 235.659 21.1154C235.613 21.047 235.18 21.4119 234.678 21.8908C233.789 22.7574 233.766 22.803 233.766 24.3994C233.766 26.2467 234.108 26.9537 235.089 27.0677C235.454 27.1133 235.705 27.2729 235.705 27.4782C235.705 27.7519 235.18 27.8203 232.694 27.8887C230.824 27.9343 229.638 27.8659 229.547 27.7062Z" fill="#3A5674"></path>
  <path d="M24.9351 23.5556C22.9282 21.5031 21.195 19.6103 21.1038 19.3366C20.8757 18.5156 21.4687 17.7174 25.1404 14.0685C28.2875 10.9897 28.7437 10.6021 29.4278 10.6021C30.112 10.6021 30.5909 10.9897 33.9661 14.3422C38.9378 19.291 38.9378 18.5612 33.9661 23.51C30.5453 26.8853 30.1348 27.2502 29.405 27.2502C28.698 27.2502 28.2875 26.9081 24.9351 23.5556ZM32.4382 21.7996C35.1748 19.0401 35.152 18.5384 32.0277 15.6421C30.4769 14.1825 30.2032 14.0229 29.3822 14.0229C28.5384 14.0229 28.3103 14.1825 26.5543 15.9386C25.5281 16.9648 24.593 18.1051 24.5018 18.4472C24.2737 19.405 24.7755 20.226 26.6911 22.0961C28.356 23.7153 28.5384 23.8293 29.4506 23.8293C30.3857 23.8293 30.5453 23.7381 32.4382 21.7996Z" fill="#3A5674"></path>
  <path d="M240.312 42.5982C240.38 42.4386 240.517 42.3018 240.631 42.3018C240.745 42.3018 240.836 42.4386 240.836 42.5982C240.836 42.7807 240.699 42.9175 240.517 42.9175C240.335 42.9175 240.243 42.7807 240.312 42.5982Z" fill="#3A5674"></path>
  <path d="M164.232 41.5948C164.209 40.9562 164.095 40.7281 163.753 40.6369C163.16 40.4773 163.16 40.0212 163.73 39.8615C163.981 39.7931 164.232 39.5194 164.278 39.2458C164.369 38.7669 164.369 38.7669 164.414 39.2914C164.437 39.6335 164.597 39.7931 164.962 39.8159C165.372 39.8387 165.395 39.8615 165.053 39.9527C164.688 40.044 164.642 40.2036 164.779 40.865C164.87 41.3667 164.848 41.6176 164.688 41.5263C164.574 41.4351 164.414 41.6176 164.369 41.8912C164.3 42.2333 164.255 42.1193 164.232 41.5948Z" fill="#3A5674"></path>
  <path d="M217.574 41.2074C217.574 40.9337 217.483 40.7057 217.392 40.7057C217.301 40.7057 217.209 40.5004 217.209 40.2496C217.209 39.9987 217.301 39.7934 217.392 39.7934C217.483 39.7934 217.574 39.4286 217.574 38.9724C217.574 38.3339 217.643 38.1742 217.985 38.2427C218.281 38.3111 218.373 38.5391 218.35 39.3829C218.327 40.2952 218.395 40.4776 218.806 40.546C219.285 40.6373 219.285 40.6373 218.783 40.6829C218.509 40.6829 218.122 40.9337 217.939 41.2074L217.574 41.7091V41.2074Z" fill="#3A5674"></path>
  <path d="M168.086 40.5001C168.382 40.2721 168.382 40.2265 168.086 40.0212C167.903 39.9072 167.858 39.7932 167.972 39.7932C168.109 39.7932 168.428 39.7247 168.724 39.6563C169.135 39.5423 169.226 39.6107 169.226 39.9984C169.226 40.2493 169.089 40.4773 168.907 40.4773C168.724 40.4773 168.382 40.5457 168.154 40.6142C167.812 40.7282 167.789 40.7054 168.086 40.5001Z" fill="#3A5674"></path>
  <path d="M17.8654 36.7371C16.8848 36.2126 11.5483 30.7621 11.1378 29.8954C10.9325 29.3937 10.9781 29.2113 11.5255 28.5043C12.3009 27.478 12.1412 27.2044 11.3202 28.1622C11.0009 28.5499 10.7273 28.8008 10.7273 28.6867C10.7273 28.5727 11.3658 27.8885 12.1412 27.136C12.9394 26.3834 13.2587 26.1325 12.8938 26.5658C12.2096 27.364 12.2324 27.364 13.0763 26.5202L13.9429 25.6536L13.1903 24.8554C12.7798 24.3993 12.4149 24.1484 12.3693 24.2853C12.2324 24.6501 11.9132 24.5361 11.9588 24.1484C12.0044 23.373 11.3886 23.6011 10.1115 24.8098C8.62916 26.2237 8.0134 26.4746 7.26082 26.0869C6.96434 25.9273 5.5504 24.6045 4.09084 23.0994C2.65408 21.617 1.35416 20.4083 1.21733 20.4083C0.829632 20.4083 0.396325 19.1084 0.555964 18.447C0.647187 18.1277 1.21733 17.3295 1.83308 16.6682C2.42603 16.0296 2.95055 15.4367 2.95055 15.3455C2.97336 15.2314 3.01897 15.1858 3.06458 15.2314C3.26983 15.3455 4.09084 14.4104 3.954 14.1824C3.88559 14.0683 3.9312 14.0227 4.04522 14.0911C4.18206 14.1824 5.02587 13.521 5.91529 12.6544C6.80471 11.765 7.71693 11.058 7.94499 11.058C8.19585 11.058 9.08527 11.6737 9.92908 12.4263C11.3886 13.7263 12.0956 14.0911 12.0956 13.5666C12.0956 13.4526 12.2324 13.3386 12.4149 13.3386C12.8938 13.3386 13.7148 12.0843 13.5552 11.6281C13.4639 11.4229 13.2815 11.3089 13.0991 11.3773C12.9394 11.4457 12.6886 11.3089 12.5061 11.1036C12.2324 10.7615 12.2552 10.7387 12.6201 11.0352C12.8482 11.2176 13.0078 11.2404 13.0078 11.1036C13.0078 10.9668 12.871 10.7615 12.7114 10.6703C12.0272 10.2142 10.9553 8.70902 10.9553 8.16168C10.9553 7.70557 11.7535 6.77054 14.5586 3.96545C16.7252 1.79892 18.3444 0.339355 18.5952 0.339355C18.8689 0.339355 20.4425 1.7533 22.5178 3.82862C25.2545 6.56529 26.007 7.4319 26.007 7.91082C26.007 8.2301 26.1439 8.57218 26.3035 8.6178C26.5088 8.70902 26.5088 8.75463 26.2807 8.75463C26.1211 8.77744 26.0527 8.86866 26.1211 9.00549C26.1895 9.11952 26.1211 9.23355 25.9614 9.23355C25.5509 9.23355 22.7458 12.0614 22.9511 12.2667C23.0423 12.3579 22.9739 12.4263 22.7914 12.4263C22.609 12.4263 21.8564 13.0421 21.1038 13.8175C19.2566 15.6875 18.732 15.9612 17.7514 15.4823C17.3181 15.277 16.748 14.7753 16.4515 14.342C16.155 13.9315 15.8357 13.635 15.7217 13.7035C15.6077 13.7719 15.5165 13.6806 15.5165 13.521C15.5165 13.2929 15.448 13.3158 15.2656 13.5666C15.0831 13.8175 14.9919 13.8403 14.9007 13.635C14.7411 13.2017 14.1253 13.2701 14.2849 13.6806C14.3762 13.9087 14.2849 14.0227 13.9885 14.0227C13.5552 14.0227 12.7798 14.6613 12.7798 15.0262C12.7798 15.1174 13.3271 15.7788 14.0113 16.4857C14.6726 17.1927 15.3112 18.0137 15.3796 18.3102C15.4708 18.5839 15.6533 18.8119 15.7673 18.8119C15.8813 18.8119 15.7901 19.04 15.5393 19.3136C15.2884 19.5645 15.1288 19.8838 15.1972 19.9978C15.2656 20.089 15.1744 20.1802 14.9691 20.1802C14.6498 20.1802 12.7798 22.1187 12.7798 22.4608C12.7798 22.7801 14.6042 24.2853 14.9691 24.2853C15.448 24.2853 16.6567 23.4186 16.6567 23.0766C16.6567 22.9397 16.3146 23.1222 15.927 23.4871C15.5165 23.8748 15.7445 23.5783 16.4287 22.8485C17.1128 22.1415 17.7058 21.5486 17.7742 21.5486C17.8198 21.5486 17.683 21.7538 17.4549 22.0047C16.976 22.5292 17.2497 22.5976 17.8882 22.1187C18.1391 21.9363 18.5496 21.7766 18.8005 21.7766C19.3934 21.7766 25.9386 28.2762 26.1211 29.0516C26.1895 29.3709 26.3035 29.8042 26.3719 30.0095C26.4403 30.2603 26.3035 30.42 25.9842 30.5112C25.7334 30.5796 25.5737 30.7393 25.665 30.8761C25.7334 31.0129 25.665 31.1269 25.5053 31.1269C25.0948 31.1269 21.3775 34.8671 21.5827 35.0723C21.674 35.1635 21.6056 35.232 21.4459 35.232C21.2635 35.232 20.8074 35.5512 20.4197 35.9161C19.5302 36.7599 18.504 37.102 17.8654 36.7371ZM21.081 33.6128C22.2213 32.4269 22.2213 32.4041 21.2179 33.2935L20.1916 34.2057L21.2179 33.111C22.1985 32.0848 22.5406 31.7883 22.2441 32.2672C21.9704 32.7005 22.5178 32.4953 22.9511 31.9708C24.958 29.6446 24.7071 28.7095 21.3319 25.4483C19.325 23.5327 18.8005 23.3046 17.7286 23.852C16.9988 24.2396 15.5165 25.6992 15.6533 25.9273C15.7217 26.0185 15.6077 26.1097 15.4024 26.1097C15.1972 26.1097 15.106 26.2237 15.1744 26.3378C15.2428 26.4746 15.1516 26.5658 14.9463 26.5658C14.7411 26.5658 14.6498 26.6798 14.7183 26.7939C14.7867 26.9307 14.6955 27.0219 14.4902 27.0219C14.2849 27.0219 14.1937 27.136 14.2621 27.25C14.3306 27.3868 14.2621 27.478 14.0797 27.478C13.4639 27.478 12.8938 28.6867 12.985 29.7814C13.0078 30.1919 13.8288 31.2638 14.9463 32.3128C15.7445 33.0654 16.2234 33.1566 15.6077 32.4497C15.3796 32.1532 15.6761 32.3813 16.269 32.9514C16.862 33.4987 17.3409 34.0005 17.3409 34.0689C17.3409 34.1373 17.0444 33.8864 16.6795 33.5443C16.3146 33.2023 15.9726 33.0198 15.8813 33.1338C15.7445 33.3391 16.3146 33.932 17.3409 34.639C17.7514 34.9127 18.2075 35.0039 18.9145 34.9355C19.7583 34.8443 20.0776 34.639 21.081 33.6128ZM8.76599 24.2625C9.08527 24.1028 9.29052 23.8976 9.2221 23.8063C9.15368 23.6923 9.24491 23.6695 9.40455 23.7151C9.72382 23.852 12.871 20.8416 13.3727 19.9294C13.8744 19.04 13.7604 18.0365 13.0991 17.3067C9.70102 13.5666 9.13088 13.1105 7.89937 13.1105C6.69068 13.1105 5.23112 14.2052 5.41356 14.935C5.52759 15.3911 5.5504 15.3911 6.02931 15.0034C6.28018 14.7981 5.89248 15.2542 5.13989 16.0296C4.38731 16.805 3.72595 17.4436 3.68033 17.4436C3.61192 17.4436 4.02242 16.9875 4.56975 16.4173C5.41356 15.5507 5.50478 15.3911 5.1627 15.2542C4.88903 15.1402 4.52414 15.3455 3.99961 15.8472C3.56631 16.2577 3.26983 16.6682 3.31544 16.7822C3.38386 16.8734 3.26983 17.0103 3.06458 17.0787C2.88214 17.1471 2.79092 17.3067 2.85933 17.4436C2.92775 17.5576 2.88214 17.6716 2.7453 17.6716C2.60847 17.6716 2.56286 17.7857 2.63128 17.8997C2.69969 18.0365 2.65408 18.1277 2.54005 18.1277C1.96991 18.1277 2.312 19.4733 3.06458 20.2715C3.47508 20.7276 3.79436 21.0925 3.77156 21.0925C3.56631 21.0925 6.32579 23.7151 6.91873 24.0572C7.76254 24.5817 7.9906 24.6045 8.76599 24.2625ZM19.9179 13.1789C19.8723 13.0193 19.9864 12.9509 20.146 13.0193C20.3056 13.0649 21.2863 12.2667 22.3125 11.2176C24.1142 9.34758 24.1826 9.25635 24.1826 8.2301C24.1826 7.18104 24.137 7.08982 21.9704 4.90048C20.5109 3.41811 19.5074 2.57431 19.0513 2.48308C18.4356 2.32344 18.39 2.34625 18.6864 2.71114C19.0513 3.14445 19.0285 3.19006 18.2531 3.39531C17.9338 3.46373 17.8198 3.46373 17.9795 3.39531C18.4356 3.19006 18.2987 2.61992 17.7742 2.61992C17.2497 2.61992 13.0534 6.6109 13.3043 6.88457C13.3955 6.95299 13.2815 7.13543 13.0763 7.29507C12.8026 7.50032 12.757 7.75118 12.871 8.43535C13.0078 9.11952 13.4868 9.73527 15.1516 11.4229L17.2497 13.5438L18.5952 13.4982C19.5074 13.4526 19.9407 13.3614 19.9179 13.1789Z" fill="#3A5674"></path>
  <path d="M15.6306 5.35659C16.2464 4.74084 16.7937 4.21631 16.8621 4.21631C16.9305 4.21631 16.4744 4.74084 15.8587 5.35659C15.2429 5.99515 14.6956 6.49687 14.6272 6.49687C14.5587 6.49687 15.0149 5.99515 15.6306 5.35659Z" fill="#3A5674"></path>
  <path d="M25.2088 27.0217L23.6353 25.3113L25.3229 26.9533C26.2579 27.8655 26.9649 28.6409 26.9193 28.6637C26.8508 28.7093 26.0983 27.9795 25.2088 27.0217Z" fill="#3A5674"></path>
  <path d="M54.1721 26.6344C53.9212 26.5888 53.2827 26.3379 52.7582 26.087C52.2108 25.859 51.7091 25.6537 51.5951 25.6537C51.2074 25.6537 49.6566 23.8977 49.0865 22.8258C48.5391 21.754 48.4935 21.4347 48.4707 18.812V15.9613L49.3145 14.4334C50.5004 12.3581 52.6897 10.5792 54.0125 10.602C54.2405 10.6248 54.0353 10.8073 53.5792 11.0581C52.4617 11.6511 50.9109 13.1563 51.0249 13.5211C51.0933 13.6808 50.9337 13.7948 50.6372 13.7948C50.3636 13.7948 50.1811 13.9088 50.2267 14.0685C50.2723 14.2053 50.1355 14.5246 49.8847 14.7755C49.6566 15.0035 49.5198 15.3456 49.5882 15.528C49.6566 15.7105 49.611 15.8473 49.497 15.8473C49.4057 15.8473 49.1321 16.3718 48.904 17.0332C48.5391 18.1507 48.5391 18.2875 48.9268 19.9067C49.1321 20.8417 49.5198 21.7996 49.7478 22.0276C49.9987 22.2785 50.1127 22.4609 50.0215 22.4609C49.9075 22.4609 49.9531 22.5522 50.0671 22.6434C50.2039 22.7346 50.4776 23.1679 50.7057 23.624C50.9337 24.0801 51.5723 24.7643 52.1196 25.152C53.0318 25.7906 53.602 26.0414 55.4264 26.5203L56.2246 26.7484H55.4264C54.9931 26.7484 54.423 26.7028 54.1721 26.6344Z" fill="#3A5674"></path>
  <path d="M68.4483 26.3605C66.8747 25.7219 65.6432 24.3992 65.1871 22.8484C64.617 21.024 64.6398 20.7275 65.5064 18.3557C65.7573 17.6716 67.1484 16.1208 68.015 15.5506C69.0185 14.9121 69.0413 15.0945 68.015 15.9611C67.4449 16.4629 67.1256 16.8962 67.2168 17.1014C67.2852 17.3295 67.194 17.4435 66.9432 17.4435C66.7379 17.4435 66.6467 17.5575 66.7151 17.6716C66.7835 17.8084 66.6695 17.8996 66.4414 17.8996C66.0994 17.8996 66.0765 17.9452 66.373 18.1277C66.6695 18.3101 66.6695 18.3557 66.3502 18.3557C65.8485 18.3557 65.5748 19.0627 65.9625 19.3136C66.1906 19.4504 66.1906 19.496 65.9853 19.496C65.7801 19.496 65.6888 19.9749 65.6888 21.0924C65.6888 22.4151 65.7801 22.8712 66.2818 23.6694C66.9888 24.8097 68.3343 26.064 69.0641 26.2465C69.3377 26.3377 69.5658 26.4745 69.5658 26.5886C69.5658 26.8394 69.657 26.8622 68.4483 26.3605Z" fill="#3A5674"></path>
  <path d="M72.5308 26.6798C72.5308 26.6342 72.85 26.4061 73.2149 26.2237C73.6026 26.0184 73.8535 25.7676 73.7851 25.6535C73.7167 25.5167 73.7851 25.4939 73.9675 25.5623C74.4464 25.7448 75.8832 24.0115 76.1797 22.8941C76.3393 22.2783 76.5217 22.0274 76.6586 22.1643C76.7954 22.3011 76.7954 22.6204 76.6358 23.0309C76.4989 23.373 76.4533 23.8291 76.5217 24.0571C76.613 24.3308 76.4989 24.4905 76.1569 24.5817C75.906 24.6501 75.7464 24.8097 75.8376 24.9466C75.906 25.0834 75.8604 25.1974 75.7007 25.1974C75.5411 25.1974 75.199 25.3799 74.9482 25.6079C74.4692 26.0412 72.5308 26.885 72.5308 26.6798Z" fill="#3A5674"></path>
  <path d="M135.565 26.4745C134.79 26.1324 134.539 25.357 134.585 23.3729L134.607 22.3467L134.835 23.487C135.177 25.2886 136.705 26.9078 137.458 26.2921C137.618 26.178 137.869 26.1096 138.028 26.178C138.188 26.2464 138.119 26.3149 137.869 26.3149C137.481 26.3377 137.481 26.3833 137.754 26.5657C138.302 26.9078 136.409 26.8394 135.565 26.4745Z" fill="#3A5674"></path>
  <path d="M147.447 26.5888C145.395 26.0871 143.16 24.4223 142.453 22.8715C141.905 21.64 141.404 19.6103 141.404 18.584C141.404 16.4175 142.977 13.2019 144.665 11.9248C145.645 11.1494 146.763 10.6021 147.265 10.6021C147.493 10.6249 147.242 10.8529 146.649 11.1722C145.463 11.7879 144.072 13.1335 144.003 13.7264C143.981 13.9545 143.889 14.3422 143.798 14.5702C143.661 14.8895 143.684 14.9579 143.867 14.8439C144.049 14.7299 144.095 14.8211 143.981 15.072C143.889 15.3228 143.798 15.3684 143.73 15.2088C143.684 15.0491 143.479 14.9351 143.296 14.9351C143.091 14.9351 142.977 15.0035 143.068 15.072C143.137 15.1404 143 15.3912 142.749 15.6421C142.27 16.121 142.179 17.1245 142.612 17.2841C142.84 17.3753 142.84 17.4209 142.612 17.4209C142.407 17.4437 142.316 17.8542 142.316 18.698C142.316 19.5419 142.407 19.9524 142.612 19.9524C142.795 19.9524 142.795 20.0208 142.567 20.1576C142.293 20.3401 142.27 20.4769 142.498 20.9558C142.635 21.2751 142.863 21.5487 143 21.5487C143.137 21.5487 143.182 21.6628 143.114 21.7768C143.046 21.9136 143.068 22.0049 143.205 22.0049C143.342 22.0049 143.388 22.1417 143.319 22.3013C143.251 22.4838 143.661 23.1908 144.231 23.8977C145.281 25.1748 146.991 26.2239 148.314 26.3835C148.633 26.4292 148.975 26.5432 149.066 26.6344C149.272 26.8397 148.359 26.794 147.447 26.5888Z" fill="#3A5674"></path>
  <path d="M175.247 26.0639L174.586 25.3113L175.339 25.9726C175.726 26.3603 176.068 26.6796 176.068 26.7252C176.068 26.9077 175.886 26.748 175.247 26.0639Z" fill="#3A5674"></path>
  <path d="M181.085 26.657C181.085 26.4974 182.271 26.0869 182.385 26.2009C182.431 26.2465 182.157 26.3833 181.792 26.5202C181.404 26.657 181.085 26.7254 181.085 26.657Z" fill="#3A5674"></path>
  <path d="M59.3717 26.0187C60.7629 25.4486 61.6523 24.81 61.4698 24.5135C61.3102 24.2399 62.1996 23.5329 62.5417 23.6697C62.747 23.761 62.7241 23.8066 62.4733 23.8066C62.268 23.8294 61.9716 23.989 61.8119 24.1715C61.5611 24.4679 61.6295 24.5135 62.1312 24.5135C62.4505 24.5135 62.7241 24.6276 62.7241 24.7416C62.7241 24.8784 62.5189 24.9697 62.268 24.9697C62.04 24.9697 61.7207 25.1521 61.6067 25.3802C61.4926 25.5854 60.8085 25.9503 60.1243 26.1784C58.2542 26.7485 57.8209 26.6573 59.3717 26.0187Z" fill="#3A5674"></path>
  <path d="M75.2671 26.4974C75.2671 26.4518 75.6092 26.1326 76.0197 25.7449L76.7495 25.0835L76.0881 25.8361C75.4495 26.5203 75.2671 26.6799 75.2671 26.4974Z" fill="#3A5674"></path>
  <path d="M80.7407 23.0307C80.7407 20.0432 80.7863 19.4958 81.0828 19.4958C81.3793 19.4958 81.4249 20.0432 81.4249 23.0307C81.4249 26.0183 81.3793 26.5656 81.0828 26.5656C80.7863 26.5656 80.7407 26.0183 80.7407 23.0307Z" fill="#3A5674"></path>
  <path d="M109.02 26.1554C107.925 25.6309 107.172 24.8327 106.944 23.9661C106.853 23.5784 106.693 23.0082 106.602 22.7118C106.488 22.3241 106.511 22.21 106.693 22.3241C106.853 22.4153 106.967 22.6433 106.967 22.8486C106.967 23.5556 108.7 25.5853 109.818 26.1782C110.73 26.6571 110.046 26.6343 109.02 26.1554Z" fill="#3A5674"></path>
  <path d="M122.361 25.836C120.901 24.8782 120.126 23.4186 120.012 21.3661C119.852 19.1311 121.107 16.5541 122.726 15.7331C123.342 15.4138 123.296 15.4822 122.361 16.3945C121.654 17.0558 121.335 17.5348 121.403 17.7628C121.494 17.9681 121.449 18.1277 121.312 18.1277C121.198 18.1277 120.879 18.6066 120.628 19.1996C120.217 20.1346 120.194 20.4539 120.4 21.5942C120.765 23.6695 121.928 25.2431 123.729 26.1097C124.528 26.4974 124.573 26.5658 124.071 26.5658C123.752 26.5658 122.977 26.2237 122.361 25.836Z" fill="#3A5674"></path>
  <path d="M128.519 25.9958C129.112 25.6765 129.636 25.4485 129.705 25.4941C129.864 25.6537 128.268 26.566 127.834 26.566C127.606 26.566 127.926 26.3151 128.519 25.9958Z" fill="#3A5674"></path>
  <path d="M152.51 26.087C154.106 25.4712 155.794 23.8976 156.592 22.3012C157.185 21.1153 157.253 20.7504 157.253 18.6979C157.253 16.3946 156.866 14.7298 156.478 15.3683C156.341 15.5964 156.25 15.5736 156.159 15.2771C156.067 15.0718 156.09 14.9806 156.227 15.049C156.592 15.2771 156.501 14.8894 155.999 14.0912C155.748 13.6807 155.429 13.3386 155.292 13.3386C155.11 13.3386 155.132 13.4754 155.338 13.7491C155.497 13.9544 155.36 13.8859 155.018 13.5895C154.403 13.0193 154.197 12.7229 154.631 12.9965C154.768 13.0649 154.859 12.9737 154.859 12.7913C154.859 12.4036 153.148 11.0581 152.692 11.0581C152.533 11.0581 152.282 10.8984 152.122 10.716C151.894 10.4423 151.962 10.4195 152.51 10.5791C152.875 10.6932 153.49 10.944 153.901 11.1493C154.813 11.6282 156.774 13.3842 156.866 13.8175C156.911 14 157.048 14.2508 157.208 14.3649C157.504 14.6157 157.595 14.9578 157.709 16.4174C157.755 16.9191 157.869 17.5348 157.96 17.7629C158.052 18.0138 158.029 18.7207 157.892 19.3593C157.755 19.9979 157.664 20.9101 157.687 21.389C157.687 21.8451 157.618 22.2328 157.504 22.2328C157.39 22.2328 157.367 22.3012 157.436 22.3924C157.527 22.4609 157.39 22.6889 157.139 22.8486C156.82 23.0766 156.706 23.3275 156.797 23.624C156.888 23.9204 156.843 24.0573 156.592 24.0573C156.41 24.0573 155.748 24.5134 155.11 25.0379C153.992 25.9957 152.692 26.5887 151.757 26.5431C151.506 26.5431 151.848 26.3378 152.51 26.087Z" fill="#3A5674"></path>
  <path d="M176.023 25.8361C174.996 25.0379 173.628 22.6889 173.924 22.1872C174.016 22.0275 174.289 22.3924 174.586 23.0538C175.224 24.4906 176.137 25.5624 177.186 26.1098C177.847 26.4518 177.915 26.5431 177.505 26.5659C177.231 26.5659 176.57 26.2238 176.023 25.8361Z" fill="#3A5674"></path>
  <path d="M10.6132 25.4257C11.0922 24.9239 11.5483 24.5134 11.6167 24.5134C11.6851 24.5134 11.3202 24.9239 10.8413 25.4257C10.3624 25.9274 9.90627 26.3379 9.83786 26.3379C9.76944 26.3379 10.1343 25.9274 10.6132 25.4257Z" fill="#3A5674"></path>
  <path d="M79.6687 21.3207L79.7143 16.1894L80.4669 16.2578C80.9914 16.3034 81.1967 16.235 81.1967 15.9841C81.1967 15.8017 81.0598 15.5964 80.923 15.5508C80.7406 15.4824 80.7862 15.414 81.0142 15.414C81.3563 15.3912 81.4019 15.5964 81.3563 16.6455C81.3335 17.3297 81.2195 17.8998 81.1283 17.8998C81.0142 17.8998 80.9914 17.991 81.0598 18.1051C81.1511 18.2191 81.0826 18.3559 80.9686 18.4015C80.5581 18.5384 80.0792 21.1154 80.0564 23.3732C80.0336 24.559 79.9424 25.7449 79.8283 25.9958C79.7371 26.2467 79.6687 24.2398 79.6687 21.3207Z" fill="#3A5674"></path>
  <path d="M114.516 26.2466C114.561 26.201 114.972 25.9958 115.405 25.7905L116.203 25.4028L115.633 25.8589C115.314 26.1098 114.926 26.3379 114.744 26.3379C114.561 26.3379 114.47 26.2923 114.516 26.2466Z" fill="#3A5674"></path>
  <path d="M89.4294 24.1712C89.4294 23.3046 89.5207 22.3696 89.6347 22.1187C89.7715 21.7995 89.8399 22.1644 89.8399 23.259C89.8399 24.1484 89.7487 25.0607 89.6347 25.3115C89.4979 25.6308 89.4294 25.2659 89.4294 24.1712Z" fill="#3A5674"></path>
  <path d="M89.0417 22.1189C89.0417 20.3629 89.0874 19.6787 89.1102 20.5909C89.1558 21.5031 89.1558 22.9399 89.1102 23.7837C89.0646 24.6275 89.0417 23.8749 89.0417 22.1189Z" fill="#3A5674"></path>
  <path d="M102.474 24.1713C102.474 23.5556 102.52 23.3047 102.566 23.6696C102.611 24.0117 102.611 24.5134 102.566 24.8099C102.52 25.0836 102.474 24.8099 102.474 24.1713Z" fill="#3A5674"></path>
  <path d="M133.923 20.7048L133.877 16.3033L133.148 16.2805C132.463 16.2349 132.441 16.2349 133.011 16.1437C133.535 16.0525 133.627 15.9384 133.581 15.3683C133.558 15.0034 133.444 14.7069 133.307 14.6841C133.193 14.6841 133.444 14.5473 133.877 14.3649C134.311 14.2052 134.904 14.114 135.177 14.1824C135.588 14.2736 135.679 14.1824 135.77 13.6351C135.861 12.9965 135.861 12.9965 135.907 13.7263C135.93 14.3192 136.044 14.4561 136.568 14.5473C137.139 14.6385 137.116 14.6385 136.432 14.6841C135.884 14.7069 135.725 14.7982 135.861 15.0034C135.953 15.1402 135.998 15.4595 135.976 15.6648C135.93 15.9156 136.112 16.0753 136.546 16.1437L137.184 16.2349L136.568 16.2805C136.135 16.3033 135.93 16.4402 135.861 16.8279C135.77 17.2612 135.77 17.2384 135.725 16.691C135.702 16.1437 135.633 16.0753 134.972 16.1209L134.219 16.1893L134.105 20.6364L133.969 25.0835L133.923 20.7048Z" fill="#3A5674"></path>
  <path d="M135.748 23.601C135.748 23.1676 135.793 22.9852 135.862 23.2133C135.907 23.4185 135.907 23.7834 135.862 24.0115C135.793 24.2167 135.748 24.0343 135.748 23.601Z" fill="#3A5674"></path>
  <path d="M20.397 22.1872L19.7356 21.4346L20.4882 22.0959C21.1723 22.7345 21.332 22.9169 21.1495 22.9169C21.1039 22.9169 20.7847 22.5749 20.397 22.1872Z" fill="#3A5674"></path>
  <path d="M106.443 21.5028C105.918 19.5643 107.424 16.4172 109.339 15.4821C109.978 15.1629 109.955 15.2085 109.066 15.9611C108.541 16.4172 108.153 16.8733 108.222 16.9873C108.29 17.0785 108.176 17.2154 107.994 17.2838C107.583 17.4434 106.739 19.0854 106.739 19.724C106.739 20.0205 106.899 20.1801 107.173 20.1801C107.492 20.1801 107.56 20.3169 107.492 20.7274C107.401 21.2064 107.492 21.3432 108.13 21.5256C108.883 21.7765 108.86 21.7765 107.902 21.6625C107.264 21.5712 106.831 21.6169 106.739 21.7765C106.648 21.9361 106.511 21.8449 106.443 21.5028Z" fill="#3A5674"></path>
  <path d="M174.928 21.7311C174.928 21.6171 174.7 21.5487 174.426 21.5943C173.924 21.6627 173.902 21.5943 173.97 20.2944C173.993 19.519 174.221 18.5155 174.495 17.9682C174.951 17.0332 176.684 15.2543 176.912 15.4824C176.98 15.5508 176.73 15.8701 176.342 16.1894C175.909 16.5543 175.68 16.9192 175.772 17.1244C175.863 17.3525 175.726 17.5121 175.452 17.5805C174.974 17.7173 174.244 18.9945 174.244 19.7242C174.244 20.0207 174.403 20.1804 174.677 20.1804C174.996 20.1804 175.065 20.3172 174.996 20.7277C174.905 21.2066 174.996 21.3206 175.635 21.5031L176.41 21.7083L175.68 21.8224C175.27 21.868 174.928 21.8452 174.928 21.7311Z" fill="#3A5674"></path>
  <path d="M119.328 21.0927C119.328 20.6593 119.373 20.4769 119.442 20.705C119.488 20.9102 119.488 21.2751 119.442 21.5032C119.373 21.7084 119.328 21.526 119.328 21.0927Z" fill="#3A5674"></path>
  <path d="M161.222 21.3888C161.222 21.1608 161.176 19.9977 161.108 18.8118C160.994 16.44 161.13 16.0295 161.86 16.2119C162.248 16.326 162.339 16.5084 162.316 17.1242C162.293 17.5575 162.202 17.8996 162.111 17.8996C161.815 17.8996 161.404 19.6328 161.45 20.7046C161.472 21.2976 161.45 21.7765 161.381 21.7765C161.313 21.7765 161.244 21.5941 161.222 21.3888Z" fill="#3A5674"></path>
  <path d="M183.89 21.617C184.096 21.5714 184.46 21.5714 184.688 21.617C184.894 21.6854 184.711 21.731 184.278 21.731C183.845 21.731 183.662 21.6854 183.89 21.617Z" fill="#3A5674"></path>
  <path d="M134.608 19.7241C134.608 18.2645 134.63 18.1277 134.813 18.7663C134.95 19.2452 134.95 19.8837 134.836 20.4767C134.63 21.3661 134.608 21.3205 134.608 19.7241Z" fill="#3A5674"></path>
  <path d="M135.771 19.6102C135.771 18.7435 135.816 18.4015 135.862 18.8804C135.907 19.3365 135.907 20.0663 135.862 20.4768C135.816 20.8645 135.771 20.4996 135.771 19.6102Z" fill="#3A5674"></path>
  <path d="M183.685 20.5224C183.594 20.3171 183.662 20.0207 183.822 19.8382C184.141 19.4505 183.936 18.2874 183.457 17.8769C183.275 17.7401 183.138 17.4892 183.138 17.3296C183.138 16.9875 181.61 15.3911 181.268 15.3911C181.131 15.3911 181.062 15.3227 181.131 15.2543C181.199 15.1859 181.792 15.4139 182.408 15.7788C183.411 16.3262 183.617 16.577 183.936 17.5577C184.529 19.4277 184.62 20.5452 184.187 20.7048C183.959 20.7961 183.753 20.7276 183.685 20.5224Z" fill="#3A5674"></path>
  <path d="M116.089 20.1575C116.089 19.9067 116.203 19.7698 116.317 19.8382C116.728 20.0891 116.545 19.1541 115.952 17.9682C115.633 17.3068 114.972 16.4174 114.47 15.9841C113.991 15.528 113.717 15.1631 113.854 15.1631C114.219 15.1631 116.135 16.4174 116.089 16.6226C116.066 16.7139 116.272 17.3296 116.523 18.0366C117.161 19.6786 117.161 20.6364 116.545 20.6364C116.226 20.6364 116.089 20.4768 116.089 20.1575Z" fill="#3A5674"></path>
  <path d="M158.736 19.8381C158.736 19.5188 158.645 19.268 158.508 19.268C158.143 19.268 158.234 17.8996 158.622 17.5347C158.918 17.2155 158.964 17.3523 158.964 18.789C158.964 19.6785 158.918 20.4082 158.85 20.4082C158.781 20.4082 158.736 20.1574 158.736 19.8381Z" fill="#3A5674"></path>
  <path d="M76.3165 19.6099C76.2253 19.2906 76.0656 19.0854 75.9516 19.1538C75.8148 19.245 75.792 19.131 75.8832 18.9029C75.9744 18.6521 75.9516 18.5608 75.792 18.6521C75.6323 18.7661 75.5867 18.6521 75.6551 18.4012C75.7691 17.9223 74.4236 16.2803 73.3289 15.5733L72.6448 15.1172L73.3061 15.2768C74.8341 15.6189 76.8638 18.1275 76.8638 19.6555C76.8638 20.3625 76.4989 20.3169 76.3165 19.6099Z" fill="#3A5674"></path>
  <path d="M141.016 18.6978C141.016 17.9452 141.061 17.6715 141.107 18.082C141.153 18.4925 141.153 19.1083 141.107 19.4504C141.061 19.7925 141.016 19.4504 141.016 18.6978Z" fill="#3A5674"></path>
  <path d="M171.803 18.926C171.803 18.4243 171.849 18.2418 171.895 18.5383C171.94 18.812 171.94 19.2225 171.895 19.4505C171.826 19.6558 171.78 19.4277 171.803 18.926Z" fill="#3A5674"></path>
  <path d="M89.5436 18.9261C89.3384 18.0823 87.9472 15.9842 87.3087 15.5737C86.6017 15.0948 86.9438 14.7983 87.8104 15.1632C88.8823 15.5965 89.5436 16.6684 89.7261 18.1963C89.8629 19.5647 89.7945 19.9068 89.5436 18.9261Z" fill="#3A5674"></path>
  <path d="M93.6716 19.1767C93.4435 18.6294 93.4892 16.5084 93.74 15.9611C93.854 15.7102 93.9453 15.6418 93.9453 15.8015C93.9681 15.9611 94.2874 16.212 94.675 16.3488C95.0627 16.4856 95.268 16.6453 95.154 16.7365C95.0171 16.8049 94.8803 17.0786 94.8347 17.3294C94.8119 17.5803 94.6979 17.8312 94.6294 17.8996C94.5382 17.968 94.333 18.3785 94.1505 18.8118C93.8768 19.4504 93.8084 19.5188 93.6716 19.1767Z" fill="#3A5674"></path>
  <path d="M102.976 18.9261C102.68 17.8086 102.178 16.942 101.836 17.0561C101.653 17.1473 101.585 17.0332 101.653 16.7824C101.745 16.3947 100.992 15.5737 100.285 15.3228C100.125 15.2772 100.08 15.1404 100.171 15.0492C100.399 14.8211 101.904 15.414 102.383 15.9614C103.022 16.6456 103.569 18.47 103.341 19.0858C103.136 19.5875 103.136 19.5875 102.976 18.9261Z" fill="#3A5674"></path>
  <path d="M170.252 18.3104C170.07 17.4894 169.751 16.9877 169.409 16.9877C169.272 16.9877 169.317 17.1701 169.477 17.3982C169.637 17.6034 169.5 17.535 169.158 17.2385C168.519 16.6684 168.291 16.2579 168.884 16.7596C169.158 16.9877 169.226 16.9877 169.226 16.6912C169.226 16.4859 168.907 16.0754 168.496 15.7561C167.493 14.9808 167.881 14.7071 169.112 15.3685C169.887 15.779 170.207 16.1438 170.594 17.0333C171.096 18.1964 171.119 18.8349 170.663 18.9717C170.526 19.0174 170.344 18.7209 170.252 18.3104Z" fill="#3A5674"></path>
  <path d="M160.629 17.7859C160.629 17.2841 160.674 17.1017 160.72 17.3982C160.766 17.6718 160.766 18.0823 160.72 18.3104C160.652 18.5156 160.606 18.2876 160.629 17.7859Z" fill="#3A5674"></path>
  <path d="M14.8324 16.5996L13.5781 15.2769L14.9009 16.5312C15.6078 17.2153 16.2008 17.8083 16.2008 17.8311C16.2008 18.0135 15.9727 17.8083 14.8324 16.5996Z" fill="#3A5674"></path>
  <path d="M108.335 17.8314C108.335 17.7858 108.678 17.4665 109.088 17.0788L109.818 16.4175L109.156 17.1701C108.518 17.8542 108.335 18.0139 108.335 17.8314Z" fill="#3A5674"></path>
  <path d="M175.84 17.8314C175.84 17.7858 176.182 17.4665 176.592 17.0788L177.322 16.4175L176.661 17.1701C176.022 17.8542 175.84 18.0139 175.84 17.8314Z" fill="#3A5674"></path>
  <path d="M129.408 16.5085C129.18 16.2349 128.678 15.8244 128.291 15.5963C127.424 15.049 127.971 15.0262 128.929 15.5507C129.864 16.0752 130.457 16.5541 130.457 16.805C130.457 17.1699 129.841 16.9874 129.408 16.5085Z" fill="#3A5674"></path>
  <path d="M23.2705 12.7684C25.2089 10.7615 26.8509 9.14234 26.9194 9.18795C26.965 9.21076 25.3686 10.8528 23.3845 12.8369L19.7356 16.4173L23.2705 12.7684Z" fill="#3A5674"></path>
  <path d="M84.0931 15.9384C84.1615 15.756 84.344 15.6191 84.5264 15.6191C85.0053 15.6191 84.9141 16.0068 84.4124 16.1437C84.0931 16.2121 84.0019 16.1665 84.0931 15.9384Z" fill="#3A5674"></path>
  <path d="M126.124 15.9839C126.124 15.9383 126.375 15.8471 126.694 15.8015C127.013 15.7331 127.264 15.7787 127.264 15.8699C127.264 15.9839 127.013 16.0752 126.694 16.0752C126.375 16.0752 126.124 16.0296 126.124 15.9839Z" fill="#3A5674"></path>
  <path d="M80.2387 14.5471C80.5124 14.5015 80.9229 14.5015 81.151 14.5471C81.3562 14.6156 81.1282 14.6612 80.6264 14.6384C80.1247 14.6384 79.9423 14.5928 80.2387 14.5471Z" fill="#3A5674"></path>
  <path d="M133.946 12.4266C133.946 11.4915 133.992 11.1038 134.037 11.5828C134.083 12.0389 134.083 12.8143 134.037 13.2932C133.992 13.7493 133.946 13.3616 133.946 12.4266Z" fill="#3A5674"></path>
  <path d="M134.63 12.6543C134.63 12.0842 134.676 11.8561 134.722 12.1526C134.767 12.4263 134.767 12.8824 134.722 13.1788C134.676 13.4525 134.63 13.2245 134.63 12.6543Z" fill="#3A5674"></path>
  <path d="M61.0137 11.9932C60.512 11.6739 59.7366 11.2178 59.3033 11.0126L58.5051 10.6021L59.3717 10.6933C60.4436 10.8301 62.9294 12.3125 62.3365 12.4721C62.1084 12.5405 61.5155 12.3125 61.0137 11.9932Z" fill="#3A5674"></path>
  <path d="M57.6613 9.75833C57.935 9.71272 58.3455 9.71272 58.5736 9.75833C58.7788 9.82675 58.5508 9.87236 58.049 9.84955C57.5473 9.84955 57.3649 9.80394 57.6613 9.75833Z" fill="#3A5674"></path>
  <path d="M150.936 9.75833C151.21 9.71272 151.62 9.71272 151.848 9.75833C152.054 9.82675 151.826 9.87236 151.324 9.84955C150.822 9.84955 150.64 9.80394 150.936 9.75833Z" fill="#3A5674"></path>
</svg>
