<?xml version="1.0" encoding="UTF-8"?>
<svg xmlns="http://www.w3.org/2000/svg" width="209" height="48" viewBox="0 0 209 48" fill="none">
  <g clip-path="url(#clip0_18_1707)">
    <path d="M55.268 16.2747L53.4458 11.4433L51.6305 16.2747H55.268ZM50.2132 3.62362H56.804L65.1892 23.6614H57.97L56.9157 20.9874H49.9549L48.9355 23.6614H41.821L50.2132 3.62362ZM66.1457 18.467V13.1259H64.3234V8.15482H66.1457V4.25198H72.5969V8.14784H76.1786V13.1189H72.5969V17.0427C72.5969 18.2086 73.1345 18.6345 74.1608 18.6345C74.7543 18.6345 75.4385 18.467 76.1227 18.1528V23.1238C75.1034 23.6614 73.5674 24.0035 72.0034 24.0035C68.1914 24.0035 66.1457 22.2441 66.1457 18.467ZM78.2661 2.91846H84.7173V23.6684H78.2661V2.91846ZM95.8394 17.9224V17.2661C95.4693 17.1265 94.9038 17.0078 94.3592 17.0078C93.0815 17.0078 92.3694 17.7758 92.3694 18.7393V18.7951C92.3694 19.7027 93.0257 20.3032 93.8496 20.3032C94.9876 20.3102 95.8394 19.4025 95.8394 17.9224ZM86.2045 19.2629V19.207C86.2045 16.1071 88.5085 14.3756 92.1181 14.3756C93.4237 14.3756 95.0993 14.6619 95.7835 14.9411V14.6828C95.7835 13.2585 94.9038 12.4347 92.914 12.4347C91.3221 12.4347 89.9886 12.7768 88.6202 13.3144L87.4821 9.02057C89.2765 8.33635 91.3221 7.88253 94.0171 7.88253C97.1729 7.88253 99.2186 8.53882 100.58 9.90028C101.746 11.0662 102.2 12.5743 102.2 14.8155V23.6545H95.7486V22.0905C94.6664 23.2565 93.2212 24.0245 91.2872 24.0245C88.306 24.0245 86.2045 22.3279 86.2045 19.2629ZM104.329 8.14784H110.78V10.3052C111.772 9.02755 113.336 7.7778 115.528 7.7778C118.796 7.7778 120.841 9.93518 120.841 13.4331V23.6614H114.39V15.5067C114.39 14.1731 113.594 13.4051 112.624 13.4051C111.653 13.4051 110.78 14.1731 110.78 15.5067V23.6614H104.329V8.14784ZM123.823 18.467V13.1259H122V8.15482H123.823V4.25198H130.274V8.14784H133.855V13.1189H130.274V17.0427C130.274 18.2086 130.811 18.6345 131.838 18.6345C132.438 18.6345 133.115 18.467 133.8 18.1528V23.1238C132.773 23.6614 131.244 24.0035 129.68 24.0035C125.868 24.0035 123.823 22.2441 123.823 18.467ZM135.747 8.14784H142.199V23.6684H135.747V8.14784ZM135.636 2.91846H142.317V7.03773H135.636V2.91846ZM143.644 15.9884V15.9326C143.644 11.5829 147.058 7.80573 152.113 7.80573C155.52 7.80573 157.943 9.56515 159.137 12.0995L154.501 14.7177C153.963 13.7263 153.279 13.1538 152.225 13.1538C150.863 13.1538 149.837 14.3477 149.837 15.8837V15.9395C149.837 17.5593 150.856 18.7253 152.141 18.7253C153.279 18.7253 153.928 18.1598 154.556 17.1614L159.248 19.8354C157.852 22.4187 155.492 24.0734 151.799 24.0734C147.086 24.0664 143.644 20.3381 143.644 15.9884ZM41.9258 38.6793V27.7039H48.6912V38.5886C48.6912 41.0601 49.9688 42.1144 51.7632 42.1144C53.5575 42.1144 54.8352 41.1509 54.8352 38.7352V27.7039H61.6005V38.5327C61.6005 45.326 57.6488 48.0001 51.7073 48.0001C45.7658 48.0001 41.9258 45.2702 41.9258 38.6793ZM63.8976 32.0815H70.3488V34.2389C71.3402 32.9612 72.9041 31.7115 75.0964 31.7115C78.3639 31.7115 80.4095 33.8689 80.4095 37.3667V47.5951H73.9584V39.4473C73.9584 38.1138 73.1624 37.3458 72.192 37.3458C71.2215 37.3458 70.3488 38.1138 70.3488 39.4473V47.6021H63.8976V32.0815ZM82.56 32.0815H89.0112V47.6021H82.56V32.0815ZM82.4413 26.8521H89.1229V30.9714H82.4413V26.8521ZM101.711 39.9011V39.8453C101.711 38.3093 100.573 37.0875 99.1487 37.0875C97.7245 37.0875 96.6493 38.3093 96.6493 39.7894V39.8453C96.6493 41.3813 97.7873 42.6031 99.2116 42.6031C100.636 42.6031 101.711 41.3813 101.711 39.9011ZM90.4564 39.9011V39.8453C90.4564 35.4677 94.0939 31.7185 99.2116 31.7185C104.329 31.7185 107.911 35.4118 107.911 39.7894V39.8453C107.911 44.2229 104.273 47.9721 99.1557 47.9721C94.066 47.9721 90.4564 44.2787 90.4564 39.9011ZM109.426 32.0815H115.877V34.2389C116.869 32.9612 118.433 31.7115 120.625 31.7115C123.892 31.7115 125.938 33.8689 125.938 37.3667V47.5951H119.487V39.4473C119.487 38.1138 118.691 37.3458 117.72 37.3458C116.75 37.3458 115.877 38.1138 115.877 39.4473V47.6021H109.426V32.0815ZM144.977 39.6149H141.626V42.5682H144.949C146.402 42.5682 147.135 41.9747 147.135 41.116V41.0601C147.142 40.2083 146.43 39.6149 144.977 39.6149ZM146.625 34.0993C146.625 33.2195 145.913 32.7378 144.496 32.7378H141.626V35.5235H144.524C145.948 35.5235 146.625 35.0418 146.625 34.1551V34.0993ZM135.14 27.7039H146.283C149.041 27.7039 150.772 28.3253 151.938 29.4913C152.65 30.2034 153.16 31.2227 153.16 32.5912V32.647C153.16 35.0069 151.736 36.4591 149.606 37.1922C152.162 37.9323 153.816 39.2937 153.816 42.0236V42.0795C153.816 45.2632 151.198 47.5951 146.171 47.5951H135.14V27.7039ZM164.366 41.863V41.2067C163.996 41.0671 163.43 40.9484 162.886 40.9484C161.608 40.9484 160.896 41.7164 160.896 42.6799V42.7358C160.896 43.6434 161.552 44.2438 162.376 44.2438C163.514 44.2438 164.366 43.3362 164.366 41.863ZM154.731 43.1966V43.1407C154.731 40.0408 157.035 38.3093 160.645 38.3093C161.95 38.3093 163.626 38.5955 164.31 38.8748V38.6165C164.31 37.1922 163.43 36.3683 161.441 36.3683C159.849 36.3683 158.515 36.7105 157.147 37.2481L156.009 32.9542C157.803 32.27 159.849 31.8162 162.544 31.8162C165.699 31.8162 167.745 32.4725 169.107 33.8339C170.273 34.9999 170.726 36.508 170.726 38.7491V47.5881H164.275V46.0242C163.193 47.1902 161.748 47.9582 159.814 47.9582C156.833 47.9721 154.731 46.2686 154.731 43.1966ZM172.856 32.0815H179.307V34.2389C180.298 32.9612 181.862 31.7115 184.055 31.7115C187.322 31.7115 189.368 33.8689 189.368 37.3667V47.5951H182.917V39.4473C182.917 38.1138 182.121 37.3458 181.157 37.3458C180.194 37.3458 179.307 38.1138 179.307 39.4473V47.6021H172.856V32.0815ZM191.525 26.8521H197.976V36.8571L201.3 32.0815H208.323L203.464 38.3931L208.407 47.6021H201.502L199.254 43.3362L197.976 44.9839V47.6021H191.525V26.8521Z" fill="#004E9A"></path>
    <path d="M31.5508 47.63H17.5872L27.7737 23.2774L28.8209 20.7988L35.9843 37.0595L32.0326 46.5059L31.5508 47.63ZM19.9471 0L18.8858 2.48553L0 47.63H13.7263L14.0055 46.9876L26.866 16.2327L19.9471 0Z" fill="#0DE97B"></path>
  </g>
  <defs>
    <clipPath id="clip0_18_1707">
      <rect width="208.407" height="48" fill="white"></rect>
    </clipPath>
  </defs>
</svg>
