<?xml version="1.0" encoding="UTF-8"?>
<svg xmlns="http://www.w3.org/2000/svg" width="196" height="69" viewBox="0 0 196 69" fill="none">
  <g clip-path="url(#clip0_271_2132)">
    <path d="M60.9174 68.4101C59.6686 68.1386 58.3656 67.7586 58.0941 67.5957C57.2797 67.0527 57.3883 59.0173 58.2027 59.2888C58.5828 59.4516 59.1257 60.3203 59.3972 61.2976C59.6686 62.3292 60.7002 63.958 61.6232 64.9353C63.0891 66.4555 63.795 66.7813 65.6409 66.7813C67.1612 66.7813 68.1927 66.4555 68.9529 65.6954C71.2875 63.3608 70.093 61.4062 64.7179 58.6915C59.7229 56.194 58.6371 55.1081 58.257 52.2306C57.877 49.5702 59.1257 47.0184 61.3517 45.8782C63.1977 44.9009 68.0299 44.7924 70.5274 45.6611C72.1562 46.2583 72.2105 46.3126 72.2105 49.7331C72.2105 51.6334 71.9933 53.2079 71.7761 53.2079C71.5589 53.2079 71.016 52.2849 70.636 51.199C69.6044 48.43 67.7041 46.6926 65.6952 46.6926C63.1434 46.6926 61.8947 47.5613 61.8947 49.353C61.8947 51.0904 63.3606 52.6106 66.7811 54.2937C70.7988 56.3026 72.6448 57.9857 73.3506 60.2117C74.5994 64.4467 71.2332 68.1929 65.8581 68.6816C64.4465 68.7901 62.2204 68.6816 60.9174 68.4101Z" fill="#14345F"></path>
    <path d="M80.5175 68.1386C77.7485 66.9442 77.4228 65.7497 77.2056 56.3569C76.9884 47.9414 76.9884 47.8328 75.7397 47.6699C74.5452 47.5071 74.7624 47.1813 78.0743 43.2722L81.712 39.0916L81.8748 42.0777L82.0377 45.0639H85.1868C88.7158 45.0639 89.0416 45.2267 88.6615 46.747C88.3901 47.6157 87.9014 47.7785 85.1868 47.7785H81.9834V56.0855C81.9834 61.8406 82.2006 64.6096 82.635 65.0439C83.6665 66.0755 86.4355 65.804 87.7928 64.501C89.3131 63.0893 90.0189 63.578 89.0416 65.424C88.3358 66.7813 84.5352 68.953 83.015 68.953C82.5807 68.8988 81.4948 68.573 80.5175 68.1386Z" fill="#14345F"></path>
    <path d="M125.093 68.4643C123.41 67.7042 121.618 65.2067 121.618 63.5236C121.618 60.7003 123.735 58.5286 129.11 55.9225L134.105 53.5335V51.4704C134.105 47.4527 129.979 45.7153 127.59 48.7014C126.721 49.8416 126.504 50.6017 126.776 52.1219C127.047 53.6421 126.884 54.2937 126.016 55.0538C124.658 56.3025 123.355 56.031 121.998 54.1851C120.966 52.7734 120.966 52.7191 121.944 50.656C123.464 47.6155 128.187 45.3352 133.128 45.3352C136.223 45.3352 136.983 45.5524 138.015 46.584C139.209 47.7241 139.263 48.2671 139.426 56.6283C139.589 65.5324 139.969 67.3241 141.326 65.4238C142.249 64.2294 143.335 64.7723 142.955 66.2383C142.629 67.487 140.186 68.9529 138.449 68.9529C136.983 68.9529 134.105 67.487 134.105 66.7269C134.105 66.4011 133.291 66.6726 132.314 67.2698C130.196 68.5729 126.721 69.1158 125.093 68.4643ZM132.205 64.8809C133.4 63.7407 133.562 63.0892 133.562 59.7773V55.9768L131.934 56.574C127.644 58.0399 125.744 62.3834 128.242 64.9895C129.708 66.564 130.576 66.564 132.205 64.8809Z" fill="#14345F"></path>
    <path d="M0.108565 67.7586C0.271446 67.3786 0.814382 66.9442 1.41161 66.8356C3.80053 66.4013 3.80053 66.2927 3.80053 49.4074C3.80053 32.522 3.80053 32.4135 1.41161 31.9791C0.814382 31.8705 0.271446 31.4362 0.108565 31.0561C-0.0543161 30.5132 2.60607 30.4046 13.0847 30.5132L26.2238 30.6761L27.4726 35.0196C28.9928 40.1774 28.8842 39.6345 28.287 39.6345C27.9612 39.6345 26.4953 38.4401 24.975 36.9741C21.0116 33.1736 19.4914 32.5763 13.6277 32.5763H8.68696V41.0461V49.5702L13.3562 49.2445C18.8942 48.8644 20.3601 48.05 21.1745 45.0639C22.2604 41.0461 22.8033 42.7292 22.8033 50.1675C22.8033 57.1171 22.1518 60.0489 21.3917 56.6284C21.2288 55.814 20.9573 54.6738 20.7944 54.1309C20.3601 52.4478 16.4509 51.0362 12.3789 51.0362H8.68696V58.3115C8.68696 65.804 8.84984 66.4556 11.0759 66.8356C11.6731 66.9442 12.216 67.3786 12.3789 67.7586C12.5418 68.2473 11.0759 68.4101 6.24375 68.4101C1.41161 68.4101 -0.0543161 68.2473 0.108565 67.7586Z" fill="#14345F"></path>
    <path d="M27.2554 67.7585C27.4183 67.3784 27.9612 66.9441 28.5584 66.8898C30.6216 66.5097 30.9473 65.261 30.9473 57.497C30.9473 49.5701 30.5673 48.3213 28.1784 48.3213C26.2781 48.3213 27.0925 47.2898 29.4814 46.6925C30.7302 46.3668 32.4676 45.8781 33.3363 45.6067C34.205 45.2809 35.0194 45.0637 35.0737 45.0637C35.1822 45.0637 35.2908 49.6787 35.2908 55.3252C35.2908 65.9668 35.3994 66.4554 37.6798 66.8355C38.277 66.9441 38.8199 67.3784 38.9828 67.7585C39.1457 68.2471 37.734 68.41 33.1191 68.41C28.5041 68.41 27.0925 68.2471 27.2554 67.7585Z" fill="#14345F"></path>
    <path d="M40.7202 67.9213C40.7202 67.5956 41.3717 67.0526 42.2404 66.6726L43.7063 65.9668L43.8692 58.6371C43.9235 54.6194 43.8692 50.7646 43.7063 50.113C43.5434 49.4615 42.729 48.7014 41.6974 48.3756C39.58 47.6155 39.7972 47.3983 43.4891 46.4754C45.1179 46.041 46.8553 45.4981 47.3983 45.3352C48.1584 45.0094 48.3213 45.2809 48.3213 47.2898C48.3756 49.6787 48.3756 49.6787 49.1357 48.267C50.2215 46.3125 52.2847 45.0637 54.565 45.0637C56.1395 45.0637 56.5739 45.3352 57.0082 46.4754C57.8769 48.6471 56.7911 50.1673 54.6736 49.733C51.3617 49.0272 50.9274 49.1357 49.7329 50.656C48.7013 52.0676 48.5927 52.882 48.5927 59.3429C48.5927 66.4011 48.5927 66.4554 49.8958 66.7812C50.6559 66.9441 51.3074 67.3784 51.4703 67.7585C51.6332 68.2471 50.2758 68.41 46.2038 68.41C43.1091 68.41 40.7202 68.1928 40.7202 67.9213Z" fill="#14345F"></path>
    <path d="M89.5846 67.5958C89.5846 67.1071 90.0732 66.7814 90.8876 66.7814C93.8738 66.7814 93.928 66.4013 93.928 49.4074C93.928 33.8252 93.928 33.7166 92.7336 32.9022C92.0821 32.4135 90.9419 32.0335 90.2361 32.0335C89.4217 32.0335 89.0416 31.762 89.2045 31.3819C89.476 30.4047 109.565 30.4589 112.822 31.3819C116.46 32.4678 118.957 35.0739 119.283 38.1686C119.446 39.6889 119.283 41.372 118.903 42.4035C118.034 44.521 114.56 47.0728 111.954 47.5614L110.053 47.9415L113.039 48.8645C117.111 50.1132 119.337 51.7963 120.586 54.511C121.835 57.3343 121.835 59.3974 120.586 62.2207C118.306 67.2157 114.397 68.4102 100.063 68.4102C91.1048 68.4102 89.5846 68.3016 89.5846 67.5958ZM109.402 66.0213C111.845 64.9897 112.985 63.0894 113.311 59.3432C113.854 52.665 111.139 49.4074 105.004 49.4074H101.529V57.4429C101.529 62.9808 101.746 65.6955 102.181 66.1299C103.049 66.9986 107.121 66.9443 109.402 66.0213ZM108.587 46.2584C110.65 45.2268 111.791 42.9465 111.791 39.6346C111.791 34.8567 109.185 32.0335 104.787 32.0335C101.746 32.0335 101.529 32.5764 101.529 40.2861V47.2357H104.135C105.547 47.2357 107.556 46.8013 108.587 46.2584Z" fill="#14345F"></path>
    <path d="M143.607 67.9214C143.444 67.5956 143.987 67.0527 144.801 66.6726L146.321 65.9668L146.484 58.9087C146.647 51.1447 146.43 49.4073 145.235 49.4073C143.226 49.4073 144.747 47.8328 147.95 46.584L151.479 45.1724V46.8012V48.3757L152.891 47.2898C154.791 45.8239 158.266 44.9009 160.438 45.281C162.175 45.6067 164.564 47.7242 165.324 49.6787C165.595 50.276 165.921 54.2937 166.084 58.6372C166.41 66.2926 166.464 66.5098 167.659 66.6726C168.31 66.7812 168.853 67.2156 168.853 67.6499C168.853 68.2472 167.713 68.41 163.152 68.41C158.592 68.41 157.451 68.2472 157.451 67.6499C157.451 67.2156 157.994 66.7812 158.7 66.6726C159.84 66.5098 159.895 66.2926 160.058 59.7231C160.22 52.1219 159.949 49.8416 158.754 48.5929C157.451 47.2898 155.117 47.6156 153.488 49.2987C152.022 50.8189 152.022 50.9275 152.022 58.5286V66.2383L153.379 66.5641C154.139 66.7269 154.737 67.2156 154.737 67.6499C154.737 68.2472 153.597 68.41 149.362 68.41C146.376 68.41 143.824 68.1929 143.607 67.9214Z" fill="#14345F"></path>
    <path d="M169.396 67.65C169.396 67.2156 169.939 66.7813 170.645 66.6727L171.839 66.5098L172.002 50.9275C172.111 35.7796 172.111 35.3453 171.025 34.748C169.287 33.825 169.722 33.2278 172.762 32.5763C174.337 32.2505 176.183 31.8705 176.834 31.7076L178.083 31.3818V43.978V56.5198L182.155 52.8821C186.336 49.1358 186.879 48.2129 185.358 47.3442C183.458 46.3126 185.25 45.6068 189.81 45.6068C193.394 45.6068 194.371 45.7696 194.371 46.3669C194.371 46.8012 193.611 47.3442 192.634 47.5613C190.625 47.9414 187.15 50.2217 185.25 52.2849L183.947 53.6422L188.779 59.9403C191.548 63.5779 194.045 66.3469 194.805 66.5641C195.457 66.727 196 67.2156 196 67.65C196 68.2472 194.751 68.4101 189.756 68.4101C184.544 68.4101 183.512 68.2472 183.512 67.5957C183.512 67.1613 183.892 66.7813 184.327 66.7813C184.761 66.7813 185.141 66.3469 185.141 65.804C185.141 64.7724 180.472 58.0943 179.712 58.0943C178.626 58.0943 178.029 59.886 178.192 62.8178C178.354 65.4782 178.517 66.0755 179.603 66.5098C180.255 66.7813 180.798 67.3242 180.798 67.7043C180.798 68.2472 179.332 68.4101 175.097 68.4101C170.536 68.4101 169.396 68.2472 169.396 67.65Z" fill="#14345F"></path>
    <path d="M31.0559 43.6522C28.8841 42.132 29.8614 38.5486 32.4675 38.5486C34.4764 38.5486 35.2908 39.4716 35.2908 41.6433C35.2908 43.1092 35.0193 43.5436 33.8792 43.9779C32.1961 44.6295 32.5218 44.6838 31.0559 43.6522Z" fill="#14345F"></path>
    <path d="M35.5079 33.445L33.6077 31.5447L33.7705 17.4284L33.9334 3.25773L35.4536 1.7918L36.9196 0.271576L54.8365 0.108695C70.4187 0.000108249 72.9706 0.0544019 74.4365 0.814513C77.4769 2.38903 77.7484 3.96354 77.5312 18.84L77.3683 32.1419L75.5766 33.7164L73.8392 35.291H55.5966H37.3539L35.5079 33.445ZM74.8708 32.2505C75.9567 30.8932 76.011 30.1331 76.011 17.5369V4.2893L74.6537 2.98626L73.3506 1.62892H55.6509H37.9512L36.6481 2.98626L35.2908 4.2893V17.8084C35.2908 30.6217 35.3451 31.3275 36.3766 32.4677C37.5168 33.6622 37.6797 33.6622 55.6509 33.6622H73.785L74.8708 32.2505Z" fill="#14345F"></path>
    <path d="M37.897 31.9791C37.0283 31.4904 36.9197 30.2417 36.9197 18.0256C36.9197 8.25277 37.0826 4.39793 37.5712 3.90928C38.4942 2.98629 72.8078 2.98629 73.7308 3.90928C74.2194 4.39793 74.3823 8.19848 74.3823 17.6456C74.3823 29.6988 74.2737 30.8389 73.405 31.6533C72.5363 32.4677 70.4731 32.5763 55.5967 32.5763C45.2266 32.5763 38.4399 32.3591 37.897 31.9791ZM46.1496 29.1558C44.8465 28.5043 44.7923 28.2328 44.6294 23.1835L44.4665 17.917H46.0953C48.4842 17.917 50.3845 18.9486 50.9817 20.5774C51.3618 21.6633 51.4704 20.9032 51.4704 17.3741C51.4704 14.8223 51.3075 13.2478 51.1989 13.845C50.7646 15.5281 49.5158 16.6683 47.7784 17.0483C44.8465 17.5913 44.5208 17.1569 44.5208 12.4877C44.5208 6.84114 44.6837 6.51538 47.4526 6.51538C50.2216 6.51538 52.7734 7.87272 54.5651 10.2616C56.1396 12.4334 56.2482 12.0533 55.0537 8.52424L54.185 5.97244L46.2582 6.02674C41.8604 6.08103 38.7657 6.24391 39.3629 6.3525C39.9601 6.51538 40.6116 6.89543 40.8288 7.27549C41.046 7.60125 41.2632 12.2705 41.2632 17.6999C41.2632 27.6356 41.046 28.7758 39.0914 29.4816C38.6571 29.6445 40.3402 29.8073 42.892 29.8073C46.964 29.8616 47.3441 29.753 46.1496 29.1558ZM68.9529 28.8844C73.9479 26.3868 72.9706 18.6229 67.5413 17.5913L65.6953 17.2655L67.7585 16.2339C71.2332 14.4965 72.2105 10.5331 69.8216 7.76413C68.5186 6.2982 68.3557 6.24391 62.0576 6.13532C57.6055 6.02674 56.031 6.13532 56.8997 6.51538C58.0942 7.00402 58.0942 7.11261 58.0942 17.8085C58.0942 28.45 58.0942 28.6129 56.8997 29.2101C55.9224 29.6445 56.8454 29.8073 61.3518 29.8073C65.7496 29.8616 67.487 29.6445 68.9529 28.8844Z" fill="#14345F"></path>
    <path d="M62.2748 28.9386C62.0577 28.7757 61.8948 26.061 61.8948 22.9663C61.8948 17.374 61.8948 17.374 63.2521 17.374C65.4239 17.374 67.2156 18.5142 67.8671 20.2516C69.0615 23.6721 68.1385 27.6898 65.9125 28.7214C64.3923 29.3729 62.8178 29.4815 62.2748 28.9386Z" fill="#14345F"></path>
    <path d="M62.0032 11.8904L62.1661 6.78676L63.9035 6.62388C66.1295 6.40671 67.324 8.08981 67.324 11.456C67.324 14.4965 66.1838 16.1253 63.632 16.6139L61.8403 16.994L62.0032 11.8904Z" fill="#14345F"></path>
  </g>
  <defs>
    <clipPath id="clip0_271_2132">
      <rect width="196" height="68.9529" fill="white"></rect>
    </clipPath>
  </defs>
</svg>
