<?xml version="1.0" encoding="UTF-8"?>
<svg xmlns="http://www.w3.org/2000/svg" width="131" height="34" viewBox="0 0 131 34" fill="none">
  <path fill-rule="evenodd" clip-rule="evenodd" d="M0.26123 13.7833C12.1758 13.7833 16.2687 7.60042 16.2687 0.879883H27.507V0.87999H28.4048V13.0478C31.952 9.46357 39.2109 9.46357 43.6676 9.46357V20.2165C31.7528 20.2165 27.6601 26.3993 27.6601 33.1199H16.4217V33.1198H15.5239V20.952C11.9768 24.5362 4.71787 24.5362 0.26123 24.5362V13.7833Z" fill="#BDFF00"></path>
  <path d="M53.5625 26.4337H55.9911V18.4871H61.2264C64.7615 18.4871 67.4871 16.9456 67.4871 12.959C67.4871 8.97241 64.7615 7.43091 61.2264 7.43091H53.5625V26.4337ZM55.9911 9.55714H61.4962C63.898 9.55714 65.0584 10.6468 65.0584 12.959C65.0584 15.2712 63.898 16.361 61.4962 16.361H55.9911V9.55714Z" fill="#141414"></path>
  <path d="M68.7422 26.4337H71.1708V18.7528H76.7029C81.5874 18.7528 79.7524 25.6364 80.5889 26.4337H83.2064V26.2743C82.208 25.9554 83.7732 18.4871 79.4824 17.6632V17.61C81.6143 17.0785 82.9366 15.5636 82.9366 12.8262C82.9366 9.45085 80.373 7.43091 76.568 7.43091H68.7422V26.4337ZM71.1708 9.55714H76.0013C77.9983 9.55714 80.508 9.79636 80.508 13.0919C80.508 16.3875 77.9983 16.6267 76.0013 16.6267H71.1708V9.55714Z" fill="#141414"></path>
  <path d="M84.7942 7.43091V26.4337H87.2228V7.43091H84.7942Z" fill="#141414"></path>
  <path d="M89.801 26.4337H92.2298V10.8063H92.2837L98.1128 26.4337H100.272L106.101 10.8063H106.155V26.4337H108.583V7.43091H105.264L99.2186 23.2179H99.1649L93.1202 7.43091H89.801V26.4337Z" fill="#141414"></path>
  <path d="M111.175 7.43091V26.4337H113.604V7.43091H111.175Z" fill="#141414"></path>
  <path d="M123.118 15.3515C120.284 14.6604 118.207 14.3149 118.207 11.7901C118.207 10.2221 119.664 9.18555 122.389 9.18555C125.438 9.18555 126.895 10.5144 127.247 13.0659H129.676C129.351 9.13236 126.491 7.05933 122.389 7.05933C118.125 7.05933 115.778 9.05262 115.778 12.0559C115.778 15.7502 119.232 16.7335 122.12 17.3979C126.438 18.3813 127.867 18.8597 127.867 21.4643C127.867 23.1651 126.681 24.6801 123.334 24.6801C119.286 24.6801 117.667 22.6603 117.397 20.0556H114.968C115.239 24.4143 118.773 26.8063 123.334 26.8063C128.218 26.8063 130.296 24.2283 130.296 21.4643C130.296 17.1322 127.463 16.4145 123.118 15.3515Z" fill="#141414"></path>
</svg>
