<?xml version="1.0" encoding="UTF-8"?>
<svg xmlns="http://www.w3.org/2000/svg" width="255" height="34" viewBox="0 0 255 34" fill="none">
  <g clip-path="url(#clip0_13_1278)">
    <path d="M72.248 4.76C72.1347 2.15333 69.9813 0 67.2613 0C65.5613 0 64.088 0.793333 63.1813 2.26667L55.1347 13.6L47.2013 2.49333L47.088 2.26667C46.1813 0.793333 44.708 0 42.8947 0C40.1747 0 37.908 2.15333 37.7947 4.76V33.2067C37.7947 33.66 38.1347 34 38.588 34H43.5747C44.028 34 44.368 33.66 44.368 33.2067V11.9C44.368 11.4467 44.9347 11.3333 45.1613 11.6733L52.188 21.8733L52.3013 21.9867C52.9813 22.8933 53.888 23.3467 55.0213 23.3467C56.1547 23.3467 57.1747 22.78 57.7413 21.8733L64.768 11.56C64.9947 11.22 65.5613 11.3333 65.5613 11.7867V33.0933C65.5613 33.5467 65.9013 33.8867 66.3547 33.8867H71.3413C71.7947 33.8867 72.1347 33.5467 72.1347 33.0933L72.248 4.76Z" fill="#E35205"></path>
    <path d="M103.641 6.46C104.095 6.46 104.435 6.12 104.435 5.66667V0.793333C104.435 0.34 104.095 0 103.641 0H84.0345C82.2212 0 80.6345 1.47333 80.6345 3.4V30.6C80.6345 32.4133 82.1079 34 84.0345 34H103.641C104.095 34 104.435 33.66 104.435 33.2067V28.22C104.435 27.7667 104.095 27.4267 103.641 27.4267H87.5479C87.3212 27.4267 87.2079 27.2 87.2079 27.0867V20.2867H100.468C101.035 20.2867 101.601 19.8333 101.601 19.1533V14.8467C101.601 14.28 101.148 13.7133 100.468 13.7133H87.0945V6.91333C87.0945 6.68667 87.3212 6.46 87.5479 6.46H103.641Z" fill="#E35205"></path>
    <path d="M206.775 0H204.395H201.901C201.448 0 201.108 0.34 201.108 0.793333V21.3067C201.108 21.76 200.541 21.9867 200.201 21.5333L188.188 2.60667C187.281 1.02 185.695 0 183.881 0C181.161 0 179.121 2.26667 179.121 4.98667V33.2067C179.121 33.66 179.461 34 179.915 34H184.901C185.355 34 185.695 33.66 185.695 33.2067V12.6933C185.695 12.24 186.375 12.0133 186.601 12.4667L198.501 31.3933C199.635 33.0933 200.995 34 202.921 34C205.528 34 207.681 31.7333 207.681 29.1267V0.793333C207.568 0.34 207.228 0 206.775 0Z" fill="#E35205"></path>
    <path d="M138.435 32.5267L130.615 21.0801C130.388 20.8534 130.501 20.4001 130.841 20.2867C134.921 18.9267 137.641 15.4134 137.641 10.7667C137.641 4.64672 133.448 -0.113281 126.988 -0.113281H114.635C112.821 -0.113281 111.348 1.36005 111.348 3.17339V32.9801C111.348 33.4334 111.688 33.7734 112.141 33.7734H117.128C117.581 33.7734 117.921 33.4334 117.921 32.9801V6.57339C117.921 6.46005 118.035 6.23339 118.261 6.23339H127.328C130.048 6.23339 131.181 7.93339 131.295 10.4267C131.295 11.9001 131.181 13.7134 127.668 14.5067C124.495 15.1867 121.661 18.3601 124.835 23.8001C125.288 24.4801 131.635 33.3201 131.635 33.3201C131.748 33.5467 132.088 33.6601 132.315 33.6601H137.868C138.435 33.8867 138.888 33.0934 138.435 32.5267Z" fill="#E35205"></path>
    <path d="M236.695 0H215.615C213.688 0 212.215 1.47333 212.215 3.28667C212.215 5.1 213.688 6.57333 215.615 6.57333H222.981V33.0933C222.981 33.5467 223.321 33.8867 223.775 33.8867H228.648C229.101 33.8867 229.441 33.5467 229.441 33.0933V6.57333H236.695C238.621 6.57333 240.095 5.1 240.095 3.28667C240.095 1.47333 238.508 0 236.695 0Z" fill="#E35205"></path>
    <path d="M32.2413 32.4133C31.9013 31.3933 24.0813 7.14 24.0813 7.14C22.7213 2.60667 21.5879 0 16.3746 0C11.1613 0 9.9146 2.60667 8.5546 7.14C8.5546 7.14 0.734605 31.3933 0.394605 32.4133C0.167938 33.4333 0.621272 34 1.64127 34H2.66127H5.8346C7.1946 34 7.98794 33.32 8.32794 31.96C8.32794 31.96 14.7879 10.6533 15.0146 10.0867C15.3546 9.06667 15.4679 8.16 16.2613 8.16C17.1679 8.16 17.2813 9.06667 17.5079 10.0867L24.1946 31.96C24.5346 33.32 25.3279 34 26.5746 34H29.7479H30.9946C32.1279 34 32.5813 33.4333 32.2413 32.4133Z" fill="#E35205"></path>
    <path d="M174.135 32.4133C173.795 31.3933 165.975 7.14 165.975 7.14C164.615 2.49333 163.481 0 158.268 0C153.055 0 151.808 2.60667 150.561 7.14C150.561 7.14 142.741 31.3933 142.401 32.4133C142.061 33.32 142.515 33.8867 143.648 33.8867H144.668H147.841C149.088 33.8867 149.881 33.2067 150.221 31.8467C150.221 31.8467 156.681 10.54 156.908 9.97333C157.248 8.95333 157.361 8.04667 158.155 8.04667C159.061 8.04667 159.175 8.95333 159.401 9.97333L166.088 31.8467C166.428 33.2067 167.221 33.8867 168.468 33.8867H171.641H172.661C174.021 34 174.475 33.4333 174.135 32.4133Z" fill="#E35205"></path>
    <path d="M243.268 5.44C243.268 5.44 243.948 5.66667 244.741 5.66667C245.648 5.66667 245.988 5.32667 245.988 4.76C245.988 4.19333 245.421 3.85333 244.741 3.62667C243.948 3.28667 243.155 2.83333 243.155 1.81333C243.155 0.793333 243.948 0 245.308 0C246.215 0 246.668 0.226667 246.668 0.226667V1.13333C246.668 1.13333 245.988 0.906667 245.308 0.906667C244.628 0.906667 244.175 1.24667 244.175 1.7C244.175 2.26667 244.628 2.49333 245.308 2.83333C246.215 3.17333 246.895 3.62667 246.895 4.64667C246.895 5.66667 246.215 6.57333 244.515 6.57333C243.608 6.57333 243.041 6.34667 243.041 6.34667V5.44H243.268Z" fill="#E35205"></path>
    <path d="M249.161 1.58661L248.935 6.45995H248.028L248.368 0.113281H249.614L251.201 4.53328L252.788 0.113281H253.921L254.261 6.45995H253.241L253.014 1.58661L251.428 6.00661H250.635L249.161 1.58661Z" fill="#E35205"></path>
  </g>
  <defs>
    <clipPath id="clip0_13_1278">
      <rect width="253.867" height="34" fill="white" transform="translate(0.394531)"></rect>
    </clipPath>
  </defs>
</svg>
