<?xml version="1.0" encoding="UTF-8"?>
<svg xmlns="http://www.w3.org/2000/svg" width="174" height="80" viewBox="0 0 174 80" fill="none">
  <g clip-path="url(#clip0_83_445)">
    <path d="M65.6435 50.5564C58.3084 50.5564 53.6332 48.534 49.0957 43.9897L51.752 41.3368C56.2206 45.8088 59.9209 47.2007 65.8571 47.2007C73.7469 47.2007 78.6323 43.4281 78.6323 36.9371C78.6323 33.9363 77.7951 31.559 75.9036 29.9535C74.0225 28.4892 72.8339 27.8622 68.7167 27.2972L62.9252 26.3945C59.156 25.8329 56.2206 24.6512 54.0535 22.7597C51.473 20.5926 50.15 17.5228 50.15 13.6124C50.15 5.23342 56.0104 0 65.5815 0C71.721 0 75.6349 1.67786 79.8898 5.37812L77.4506 7.82084C74.5186 5.0267 71.2387 3.21447 65.3679 3.21447C58.1086 3.21447 53.8468 7.12145 53.8468 13.478C53.8468 16.3411 54.684 18.5047 56.4342 19.9724C58.1844 21.4401 61.0371 22.553 63.8382 23.0422L69.2094 23.876C73.8881 24.5065 76.0552 25.416 78.0811 27.1628C80.8029 29.3988 82.4084 32.8165 82.4084 36.7993C82.4049 45.2472 76.0552 50.553 65.6469 50.553L65.6435 50.5564Z" fill="white"></path>
    <path d="M7.59001 79.9965C6.55986 80.0069 5.54005 79.8139 4.5857 79.4246C3.63135 79.0353 2.76658 78.4599 2.03962 77.7295C0 75.6761 0 73.5332 0 68.9061C0 64.2791 0 62.1189 2.03962 60.0758C2.76658 59.3488 3.6348 58.7735 4.5857 58.3841C5.54005 57.9948 6.55986 57.8019 7.58656 57.8088C11.4866 57.8088 14.3738 60.2033 15.1111 64.3032H12.7373C12.1585 61.6365 10.298 59.9104 7.58656 59.9104C6.89061 59.9035 6.20155 60.0344 5.55728 60.2963C4.91301 60.5581 4.33075 60.9509 3.84152 61.4436C2.46339 62.8527 2.31525 64.3549 2.31525 68.9233C2.31525 73.4918 2.46339 74.9871 3.84152 76.3962C4.33075 76.8889 4.91301 77.2816 5.55728 77.5435C6.20155 77.8088 6.89061 77.9397 7.58656 77.9328C10.298 77.9328 12.2136 76.1895 12.7752 73.54H15.0939C14.4083 77.6193 11.4488 79.9931 7.58312 79.9931L7.59001 79.9965Z" fill="white"></path>
    <path d="M31.3385 77.7295C30.615 78.4599 29.7502 79.0387 28.7993 79.4281C27.8484 79.8174 26.8252 80.0103 25.7985 79.9965C24.7683 80.0103 23.7451 79.8174 22.7942 79.4281C21.8398 79.0387 20.975 78.4599 20.2515 77.7295C18.2119 75.6761 18.2119 73.5332 18.2119 68.9061C18.2119 64.2791 18.2119 62.1189 20.2515 60.0758C20.9785 59.3454 21.8433 58.77 22.7976 58.3807C23.752 57.9914 24.7718 57.7984 25.8019 57.8122C26.8286 57.7984 27.8484 57.9879 28.7993 58.3738C29.7502 58.7597 30.615 59.3351 31.342 60.0586C33.385 62.1189 33.385 64.2618 33.385 68.8889C33.385 73.5159 33.3747 75.6761 31.342 77.7295H31.3385ZM29.5435 61.4574C29.0543 60.9612 28.472 60.5685 27.8278 60.2997C27.1835 60.031 26.4944 59.8932 25.7985 59.8966C25.1025 59.8966 24.41 60.031 23.7692 60.2997C23.1284 60.5685 22.5427 60.9612 22.0534 61.4574C20.6753 62.8665 20.5272 64.3411 20.5272 68.9061C20.5272 73.4711 20.6753 74.9423 22.0534 76.3514C22.5427 76.8475 23.1249 77.2437 23.7692 77.5125C24.4135 77.7812 25.1025 77.919 25.7985 77.9156C26.4944 77.9156 27.1869 77.7812 27.8278 77.5125C28.472 77.2437 29.0543 76.8475 29.5435 76.3514C30.9182 74.9423 31.0698 73.4677 31.0698 68.9061C31.0698 64.3445 30.9044 62.8527 29.5332 61.4574H29.5435Z" fill="white"></path>
    <path d="M51.4349 79.8137L39.9173 62.315V79.8137H37.6055V57.9946H39.7967L51.3006 75.4348V57.9946H53.6158V79.8137H51.4349Z" fill="white"></path>
    <path d="M64.2687 79.9964C61.006 79.9964 58.8734 79.1729 56.8337 77.1195L58.4324 75.5209C60.2274 77.3297 61.9052 77.9154 64.3445 77.9154C67.5107 77.9154 69.4642 76.4132 69.4642 73.8672C69.4642 72.7371 69.13 71.7517 68.4306 71.135C67.7312 70.5218 67.1765 70.3357 65.5917 70.098L63.0594 69.6983C61.354 69.4262 60.0138 68.8749 59.0663 68.0446C57.9672 67.0661 57.4229 65.7121 57.4229 63.9688C57.4229 60.2582 60.0723 57.8086 64.3686 57.8086C67.1628 57.8086 68.9681 58.5149 70.8286 60.2031L69.3299 61.7052C67.9965 60.4822 66.5633 59.8379 64.2756 59.8379C61.385 59.8379 59.7037 61.4641 59.7037 63.8861C59.7037 64.961 60.0069 65.8155 60.6787 66.3977C61.5331 67.0455 62.5426 67.4555 63.6038 67.5967L65.9983 67.9688C68.0379 68.2754 69.0439 68.7027 69.9604 69.4985C71.1593 70.508 71.7864 72.0101 71.7864 73.8189C71.7623 77.626 68.7786 79.9998 64.2687 79.9998V79.9964Z" fill="white"></path>
    <path d="M87.7002 77.7295C86.9766 78.4599 86.1119 79.0387 85.161 79.4281C84.2101 79.8174 83.1868 80.0103 82.1601 79.9965C81.13 80.0103 80.1067 79.8174 79.1524 79.4281C78.198 79.0387 77.3332 78.4599 76.6097 77.7295C74.5667 75.6761 74.5667 73.5332 74.5667 68.9061C74.5667 64.2791 74.5667 62.1189 76.6097 60.0758C77.3367 59.3454 78.2015 58.77 79.1558 58.3807C80.1101 57.9914 81.13 57.7984 82.1601 57.8122C83.1868 57.7984 84.2066 57.9879 85.1575 58.3738C86.1084 58.7597 86.9732 59.3351 87.7002 60.0586C89.7398 62.1189 89.7398 64.2618 89.7398 68.8889C89.7398 73.5159 89.7398 75.6761 87.7002 77.7295ZM85.9052 61.4574C85.4159 60.9612 84.8337 60.5685 84.1894 60.2997C83.5451 60.031 82.8561 59.8932 82.1601 59.8966C81.4642 59.8966 80.7717 60.031 80.1274 60.2997C79.4831 60.5685 78.9008 60.9612 78.4116 61.4574C77.0335 62.8665 76.8853 64.3411 76.8853 68.9061C76.8853 73.4711 77.0335 74.9423 78.4116 76.3514C78.9008 76.8475 79.4831 77.2437 80.1274 77.5125C80.7717 77.7812 81.4607 77.919 82.1601 77.9156C82.8561 77.9156 83.5486 77.7778 84.1894 77.509C84.8337 77.2403 85.4159 76.8475 85.9052 76.348C87.2729 74.9388 87.4314 73.4642 87.4314 68.9027C87.4314 64.3411 87.2764 62.8493 85.9052 61.4539V61.4574Z" fill="white"></path>
    <path d="M106.443 79.8137L101.509 70.1324H96.2964V79.8137H93.9846V57.9946H102.302C106.081 57.9946 108.734 60.2892 108.734 64.0584C108.734 67.2522 106.811 69.3331 104.007 69.9154L109.158 79.8137H106.446H106.443ZM102.088 60.0584H96.2964V68.0446H102.088C104.617 68.0446 106.415 66.7319 106.415 64.0515C106.415 61.371 104.613 60.0584 102.088 60.0584Z" fill="white"></path>
    <path d="M119.118 60.0585V79.7967H116.806V60.0585H110.529V57.9775H125.395V60.0585H119.115H119.118Z" fill="white"></path>
    <path d="M128.231 79.8137V57.9946H130.546V79.8137H128.231Z" fill="white"></path>
    <path d="M142.86 79.9964C138.467 79.9964 135.297 76.9645 135.297 72.6096V57.9912H137.616V72.4305C137.616 75.738 139.686 77.9154 142.856 77.9154C146.026 77.9154 148.127 75.7345 148.127 72.4305V57.9912H150.443V72.6096C150.443 76.9645 147.242 79.9964 142.856 79.9964H142.86Z" fill="white"></path>
    <path d="M171.473 79.8138V63.2522L165.533 76.396H163.538L157.502 63.2522V79.8276H155.187V57.9912H157.502L164.575 73.4675L171.473 57.9912H173.788V79.8103H171.473V79.8138Z" fill="white"></path>
    <path d="M168.358 4.29952V0.950684H138.195V28.1031H153.647V28.11H164.451V24.7612H141.964V4.29952H168.358Z" fill="white"></path>
    <path d="M141.964 50.6632V31.4521H138.195V47.3143H133.895V50.6632H141.964Z" fill="white"></path>
    <path d="M130.208 50.9217C131.273 50.9217 132.138 50.057 132.138 48.9924C132.138 47.9278 131.273 47.063 130.208 47.063C129.144 47.063 128.279 47.9278 128.279 48.9924C128.279 50.057 129.14 50.9217 130.208 50.9217Z" fill="#79AEA1"></path>
    <path d="M2.07756 4.47202C3.14216 4.47202 4.00694 3.60725 4.00694 2.54265C4.00694 1.47805 3.14216 0.613281 2.07756 0.613281C1.01297 0.613281 0.148193 1.47805 0.148193 2.54265C0.148193 3.60725 1.01297 4.47202 2.07756 4.47202Z" fill="#79AEA1"></path>
    <path d="M85.7021 4.47202C86.7667 4.47202 87.6315 3.60725 87.6315 2.54265C87.6315 1.47805 86.7667 0.613281 85.7021 0.613281C84.6375 0.613281 83.7727 1.47805 83.7727 2.54265C83.7727 3.60725 84.6375 4.47202 85.7021 4.47202Z" fill="#79AEA1"></path>
    <path d="M168.062 28.3207C169.127 28.3207 169.991 27.4559 169.991 26.3913C169.991 25.3267 169.13 24.4619 168.062 24.4619C166.994 24.4619 166.133 25.3267 166.133 26.3913C166.133 27.4559 166.997 28.3207 168.062 28.3207Z" fill="#79AEA1"></path>
    <path d="M171.748 4.70982C172.813 4.70982 173.678 3.84504 173.678 2.78045C173.678 1.71585 172.813 0.851074 171.748 0.851074C170.684 0.851074 169.819 1.71585 169.819 2.78045C169.819 3.84504 170.684 4.70982 171.748 4.70982Z" fill="#79AEA1"></path>
    <path d="M40.372 0.97168V33.516C40.372 41.7538 35.1352 47.1973 27.1042 47.1973C19.0732 47.1973 13.8363 41.7503 13.8363 33.516V7.65213H10.0671V34.0053C10.0671 43.7107 17.1231 50.5565 27.1042 50.5565C37.0852 50.5565 44.1412 43.7107 44.1412 34.0053V0.97168H40.372Z" fill="white"></path>
    <path d="M8.77511 4.29952H13.8363V0.950684H5.76392V4.30297H8.77511V4.29952Z" fill="white"></path>
    <path d="M122.808 5.4885C119.811 2.48764 115.618 0.968262 110.388 0.968262H89.3989V4.32399H109.485C113.478 4.32399 117.302 5.16809 120.169 8.16895C124.072 12.2895 123.862 19.5522 123.862 25.1336C123.862 30.715 124.072 39.3834 120.169 43.5006C117.302 46.5014 113.464 47.3421 109.485 47.3421H97.4713V7.65215H93.7021V50.6634H110.388C115.625 50.6634 119.818 49.1302 122.815 46.1293C127.842 41.1026 127.638 31.8106 127.638 25.1095C127.638 18.4084 127.835 10.5221 122.808 5.49195V5.4885Z" fill="white"></path>
  </g>
  <defs>
    <clipPath id="clip0_83_445">
      <rect width="173.788" height="80" fill="white"></rect>
    </clipPath>
  </defs>
</svg>
